<!-- Created with Sodipodi ("http://www.sodipodi.com/") -->
<svg xmlns:rdf="http://www.w3.org/1999/02/22-rdf-syntax-ns#" xmlns="http://www.w3.org/2000/svg" height="90" width="90" version="1.0" y="0" x="0" xmlns:cc="http://creativecommons.org/ns#" xmlns:xlink="http://www.w3.org/1999/xlink" xmlns:dc="http://purl.org/dc/elements/1.1/">
 <metadata>
  <rdf:RDF>
   <cc:Work rdf:about="">
    <dc:format>image/svg+xml</dc:format>
    <dc:type rdf:resource="http://purl.org/dc/dcmitype/StillImage"/>
    <dc:title/>
   </cc:Work>
  </rdf:RDF>
 </metadata>
 <defs></defs>
 <path d="M8.8332,32.008c-3.3718-0.065-4.7184,9.654-4.7184,13.027,0,3.372,1.3461,12.796,4.7184,12.763l23.551-0.233,0.065,24.227c0.01,3.373,9.126,4.439,12.499,4.439,3.372,0,11.984-1.066,11.969-4.439l-0.109-24.589,23.346,0.33c3.373,0.048,6.171-9.126,6.171-12.498,0-3.373-2.269-11.943-5.642-11.969l-25.111-0.196-0.507-24.131c-0.071-3.3717-6.745-4.8999-10.117-4.8999-3.373,0-11.954,2.0565-11.97,5.4289l-0.108,23.204-24.037-0.464z" fill-rule="evenodd" stroke="#0d3d07" stroke-width="1.34464312" fill="#0d3d07"/>
 <path d="M11.177,36.204c-2.2382,0.004-3.7956,6.593-3.7956,8.831s1.0284,8.3,3.2666,8.302l25.674,0.021,0.044,27.428c0.003,2.239,5.799,3.085,8.037,3.085s8.572-0.582,8.566-2.82l-0.072-27.493,25.987-0.221c2.238-0.019,3.811-6.064,3.811-8.302s-1.837-8.269-4.075-8.302l-26.723-0.394,0.279-26.05c0.024-2.2377-5.535-3.0017-7.773-3.0017s-7.962,1.0296-8.037,3.2667l-0.866,25.607-24.323,0.043z" fill-rule="evenodd" fill="#2aaf18"/>
 <path d="M46.462,50.936l0.204,28.779c0.008,1.142,0.287,1.996,1.429,1.996s3.435-0.854,3.426-1.996l-0.218-28.812,28.541,0.204c1.142,0.008,2.177-2.284,2.177-3.426s-1.035-1.42-2.177-1.43l-28.512-0.248c-3.251-0.028-4.893,1.682-4.87,4.933z" fill-rule="evenodd" fill="#208c11"/>
 <path d="M43.277,38.48l-0.022-27.508c-0.001-1.1422-0.469-1.9965-1.611-1.9965s-3.427,0.8543-3.426,1.9965l0.037,27.541-26.908-0.204c-1.141-0.009-2.1773,2.284-2.1773,3.426s1.0363,1.419,2.1773,1.43l26.878,0.248c3.252,0.03,5.055-1.682,5.052-4.933z" fill-rule="evenodd" fill="#ebf8e9"/>
</svg>
