<!-- Created with Sodipodi ("http://www.sodipodi.com/") -->
<svg xmlns:rdf="http://www.w3.org/1999/02/22-rdf-syntax-ns#" xmlns="http://www.w3.org/2000/svg" height="90" width="90" version="1.0" xmlns:cc="http://creativecommons.org/ns#" xmlns:dc="http://purl.org/dc/elements/1.1/">
 <metadata>
  <rdf:RDF>
   <cc:Work rdf:about="">
    <dc:format>image/svg+xml</dc:format>
    <dc:type rdf:resource="http://purl.org/dc/dcmitype/StillImage"/>
    <dc:title/>
   </cc:Work>
  </rdf:RDF>
 </metadata>
 <defs>
  <marker id="TriangleInM" refY="0.0" refX="0.0" orient="auto">
   <path style="marker-start:none;" d="M5.77,0l-8.65,5v-10l8.65,5z" fill-rule="evenodd" transform="scale(-0.4)" stroke="#000" stroke-width="1.0pt"/>
  </marker>
  <marker id="TriangleOutM" refY="0.0" refX="0.0" orient="auto">
   <path style="marker-start:none;" d="M5.77,0l-8.65,5v-10l8.65,5z" fill-rule="evenodd" transform="scale(0.4)" stroke="#000" stroke-width="1.0pt"/>
  </marker>
  <linearGradient id="linearGradient615" y2="68.044" gradientUnits="userSpaceOnUse" y1="5.3679" x2="35.752" x1="50.644">
   <stop stop-color="#7fa8e3" stop-opacity="0.741176" offset="0"/>
   <stop stop-color="#FFF" stop-opacity="0" offset="1"/>
  </linearGradient>
 </defs>
 <path d="M12.816,74.753c-2.43-1.105-5.7449-4.64-3.9772-9.502,0.8839-5.303,16.794-52.149,20.329-54.359,2.21-1.9883,5.414-2.7617,9.944-1.5464,3.756,0.8844,37.565,9.7224,39.554,11.49,1.988,1.768,3.535,3.204,1.988,7.071-1.104,1.989-14.252,46.625-14.473,49.498-0.884,3.093-3.425,6.85-7.624,6.629-4.198-0.221-42.647-8.618-45.741-9.281z" fill-opacity="0.301471" fill-rule="evenodd" transform="matrix(1.114903,0.000000,0.000000,1.114903,-5.305332,-3.889256)" fill="#000"/>
 <path transform="matrix(1.114903,0.000000,0.000000,1.114903,-8.162471,-8.460684)" fill="#3d4e67" d="M12.816,74.753c-2.43-1.105-5.7449-4.64-3.9772-9.502,0.8839-5.303,16.794-52.149,20.329-54.359,2.21-1.9883,5.414-2.7617,9.944-1.5464,3.756,0.8844,37.565,9.7224,39.554,11.49,1.988,1.768,3.535,3.204,1.988,7.071-1.104,1.989-14.252,46.625-14.473,49.498-0.884,3.093-3.425,6.85-7.624,6.629-4.198-0.221-42.647-8.618-45.741-9.281z" fill-rule="evenodd"/>
 <path transform="matrix(1.114903,0.000000,0.000000,1.114903,-8.162471,-8.460684)" fill="#FFF" d="M17.899,70.996c-2.541-0.662-6.188-1.325-4.862-5.303,2.431-9.723,14.805-47.067,20.109-51.707,1.215-1.105,5.303-1.547,13.037,0.884,8.839,2.652,26.737,8.618,28.505,9.502s2.431,0.884,1.105,4.861c-1.989,3.977-10.827,38.007-13.037,43.752-1.547,4.088-1.878,5.966-4.53,5.966" fill-rule="evenodd"/>
 <path transform="matrix(0.946780,0.000000,0.000000,0.946780,-0.480566,0.409517)" fill="url(#linearGradient615)" d="M28.75,13.75s3.125-6.25,10.938-4.375c7.812,1.875,38.437,10,38.124,12.5-0.312,2.5-5.937,17.187-6.25,18.437-0.312,1.25-29.062,0.626-40,7.188-10.937,6.562-19.062,12.188-19.062,12.188s11.25-35,16.25-45.938z" fill-rule="evenodd"/>
 <path transform="matrix(0.9666606,0.256061,-0.256061,0.9666606,0,0)" fill="#000" d="M29.169,41.116l11.611-13.08-11.611-13.027h21.455v5.806h-2.151v-3.41h-8.935l6.959,8.218-9.582,10.631h11.558v-2.517h2.151v7.379h-21.455m35.828-1.469c1.306,0,2.221-0.56,2.745-1.679,0.537-1.119,0.805-3.171,0.805-6.155,0-2.774-0.262-4.715-0.787-5.823-0.525-1.119-1.446-1.678-2.763-1.678s-2.244,0.565-2.78,1.696c-0.536,1.119-0.804,3.054-0.804,5.805,0,2.961,0.268,5.007,0.804,6.138,0.536,1.13,1.463,1.696,2.78,1.696m7.309-15.003c2.122,1.725,3.183,4.115,3.183,7.169s-0.933,5.456-2.798,7.204c-1.854,1.737-4.418,2.606-7.694,2.606-3.275,0-5.846-0.869-7.711-2.606-1.853-1.748-2.78-4.15-2.78-7.204,0-2.728,0.932-5.012,2.798-6.854,1.62-1.621,4.184-2.431,7.693-2.431h12.59v2.116h-5.281" fill-opacity="0.29803922"/>
 <path d="M27.918,39.846l11.61-13.08-11.61-13.026h21.455v5.805h-2.151v-3.41h-8.935l6.959,8.218-9.582,10.632h11.558v-2.518h2.151v7.379h-21.455m35.828-1.469c1.305,0,2.221-0.56,2.745-1.679,0.536-1.119,0.804-3.17,0.804-6.155,0-2.774-0.262-4.715-0.786-5.822-0.525-1.119-1.446-1.679-2.763-1.679s-2.244,0.565-2.78,1.696c-0.537,1.119-0.805,3.054-0.805,5.805,0,2.961,0.268,5.007,0.805,6.138,0.536,1.131,1.463,1.696,2.78,1.696m7.309-15.003c2.121,1.725,3.182,4.115,3.182,7.169s-0.932,5.456-2.797,7.204c-1.854,1.737-4.419,2.606-7.694,2.606-3.276,0-5.846-0.869-7.711-2.606-1.854-1.748-2.781-4.15-2.781-7.204,0-2.727,0.933-5.012,2.798-6.854,1.62-1.62,4.185-2.431,7.694-2.431h12.59v2.116h-5.281" transform="matrix(0.9666606,0.256061,-0.256061,0.9666606,0,0)" fill="#3d4e67"/>
 <path stroke-linejoin="miter" style="color:#000000;marker-start:url(#TriangleInM);enable-background:accumulate;marker-end:url(#TriangleOutM);marker-mid:none;" d="M19.238,58.157l33.833,9.288" fill-opacity="0.29803922" fill-rule="evenodd" stroke-dashoffset="0" stroke="#000" stroke-linecap="butt" stroke-miterlimit="4" stroke-dasharray="4, 2" stroke-width="2" fill="#000"/>
</svg>
