<!-- Created with Sodipodi ("http://www.sodipodi.com/") -->
<svg xmlns:rdf="http://www.w3.org/1999/02/22-rdf-syntax-ns#" xmlns="http://www.w3.org/2000/svg" height="90" width="90" version="1.0" xmlns:cc="http://creativecommons.org/ns#" xmlns:xlink="http://www.w3.org/1999/xlink" xmlns:dc="http://purl.org/dc/elements/1.1/">
 <metadata>
  <rdf:RDF>
   <cc:Work rdf:about="">
    <dc:format>image/svg+xml</dc:format>
    <dc:type rdf:resource="http://purl.org/dc/dcmitype/StillImage"/>
    <dc:title/>
   </cc:Work>
  </rdf:RDF>
 </metadata>
 <defs>
  <linearGradient id="linearGradient554">
   <stop stop-color="#666565" offset="0"/>
   <stop stop-color="#FFF" offset="1"/>
  </linearGradient>
  <linearGradient id="linearGradient557" x1="12.924" xlink:href="#linearGradient554" gradientUnits="userSpaceOnUse" y1="79.96" gradientTransform="scale(1.122498,0.890870)" x2="8.3358" y2="72.29"/>
  <linearGradient id="linearGradient559" x1="7.7984" xlink:href="#linearGradient554" gradientUnits="userSpaceOnUse" y1="68.656" gradientTransform="scale(1.122498,0.890870)" x2="12.995" y2="78.429"/>
 </defs>
 <path d="M55.283,50.579l-43.437,27.427c-7.8484,3.106-17.599-6.657-10.091-15.653l43.291-28.429,0.146-13.338,24.278-11.741,6.581,11.002-10.384,8.553,1.463,3.003,14.625-6.135,5.85,13.153-18.866,13.76-13.456-1.602z" fill-opacity="0.3" fill-rule="evenodd" transform="matrix(0.920161,0.000000,0.000000,0.966658,7.262210,-1.768160)" fill="#000"/>
 <path transform="matrix(0.920161,0.000000,0.000000,0.966658,3.752153,-4.985714)" fill="#000" d="M55.283,50.579l-43.437,27.427c-7.8484,3.106-17.599-6.657-10.091-15.653l43.291-28.429,0.146-13.338,24.278-11.741,6.581,11.002-10.384,8.553,1.463,3.003,14.625-6.135,5.85,13.153-18.866,13.76-13.456-1.602z" fill-rule="evenodd"/>
 <path transform="matrix(0.920161,0.000000,0.000000,0.920161,3.752153,-2.945213)" fill="#c9c9c9" d="M54.991,46.124l-42.706,28.958c-5.9474,2.828-11.602-4.29-7.3124-9.945l44.46-29.543-0.146-13.894,18.867-9.653,2.778,5.851-9.506,9.945,4.388,7.459,14.332-5.997,2.633,7.167-14.918,11.115-12.87-1.463z" fill-rule="evenodd"/>
 <path transform="matrix(0.920161,0.000000,0.000000,0.920161,3.752153,-2.945213)" fill="#9d9d9d" d="M54.698,46.27c-0.146-0.438-3.363-1.901-2.193-3.948l-14.041,9.36c0.293,1.462,1.609,3.949,1.609,4.095s14.187-9.068,14.625-9.507z" fill-rule="evenodd"/>
 <path transform="matrix(0.920161,0.000000,0.000000,0.920161,3.752153,-2.945213)" fill="#ffc83d" d="M43.583,53.729l-31.298,21.353c-5.9474,2.828-11.602-4.29-7.3124-9.945l32.029-21.353c5.265,1.414,6.289,5.899,6.581,9.945z" fill-rule="evenodd"/>
 <path transform="matrix(0.920161,0.000000,0.000000,0.920161,3.752153,-2.945213)" fill="#FFF" d="M38.611,47.148l-30.128,19.744s-2.1937-1.024-1.9012-1.17,30.128-20.475,30.128-20.475l1.902,1.901z" fill-rule="evenodd"/>
 <path transform="matrix(0.920161,0.000000,0.000000,0.920161,3.752153,-2.945213)" fill="#ff933d" d="M43.583,53.729l-31.298,21.353c-4.1924,1.073,1.853-0.926-4.6799-5.119l32.176-21.645c1.608,0.244,3.51,1.365,3.802,5.411z" fill-rule="evenodd"/>
 <path d="M16.234,67.185c0,2.018-2.064,3.656-4.607,3.656s-4.6069-1.638-4.6069-3.656c0-2.019,2.0639-3.657,4.6069-3.657s4.607,1.638,4.607,3.657z" fill-rule="evenodd" transform="matrix(0.837932,-0.483709,0.480913,0.842803,-27.39991,8.078060)" stroke-width="1pt" fill="url(#linearGradient557)"/>
 <path d="M16.234,67.185c0,2.018-2.064,3.656-4.607,3.656s-4.6069-1.638-4.6069-3.656c0-2.019,2.0639-3.657,4.6069-3.657s4.607,1.638,4.607,3.657z" fill-rule="evenodd" transform="matrix(0.625296,-0.360962,0.358875,0.628931,-16.72849,21.01979)" stroke-width="1pt" fill="url(#linearGradient559)"/>
 <path transform="matrix(0.920161,0.000000,0.000000,0.920161,3.752153,-2.945213)" fill="#969696" d="M66.984,14.972l-14.772,7.752v10.969l5.558,9.067,9.652,1.17,13.017-8.043-1.316-3.364-14.626,6.581-6.289-10.969,9.946-10.969-1.17-2.194z" fill-rule="evenodd"/>
 <path transform="matrix(0.920161,0.000000,0.000000,0.920161,3.752153,-2.945213)" fill="#BBB" d="M67.569,16.142l-14.333,8.337,0.585,8.775,4.826,7.898,8.775,2.778,13.017-8.043-1.024-2.34-14.186,6.581-6.728-11.846,9.653-11.116-0.585-1.024z" fill-rule="evenodd"/>
 <g transform="matrix(-1.000000,0.000000,0.000000,1.000000,89.02518,1.132078)">
  <defs>
   <linearGradient id="linearGradient603" x1="61.047" gradientUnits="userSpaceOnUse" y1="28.657" gradientTransform="scale(0.994399,1.005632)" x2="79.628" y2="14.155">
    <stop stop-color="#666565" offset="0"/>
    <stop stop-color="#FFF" offset="1"/>
   </linearGradient>
  </defs>
  <path d="M1.25,73.906l30.469-32.031c3.646-0.99,6.51-1.979,7.969-0.156l13.906-13.75,0.469-12.344,19.531-12.5,12.812,12.969c-0.625,1.406-11.406,20-12.187,21.093-0.938-0.156-9.375,0.469-10.938,0.469-1.25-0.312-12.031,11.563-12.656,12.813,1.458,1.666,1.354,4.739,0.469,6.875l-30.938,32.344c-9.791,3.645-20.364-1.459-18.906-15.782z" fill-opacity="0.302752" fill-rule="evenodd" transform="matrix(0.949606,0.000000,0.000000,0.949606,3.089142,0.157480)" fill="#000"/>
  <path transform="matrix(0.949606,0.000000,0.000000,0.949606,-4.456341e-3,-2.494173)" fill="#000" d="M1.25,73.906l30.469-32.031c3.646-0.99,6.51-1.979,7.969-0.156l13.906-13.75,0.469-12.344,19.531-12.5,12.812,12.969c-0.625,1.406-11.406,20-12.187,21.093-0.938-0.156-9.375,0.469-10.938,0.469-1.25-0.312-12.031,11.563-12.656,12.813,1.458,1.666,1.354,4.739,0.469,6.875l-30.938,32.344c-9.791,3.645-20.364-1.459-18.906-15.782z" fill-rule="evenodd"/>
  <path transform="matrix(0.877883,0.215653,2.038332e-2,0.922358,-3.265319,-3.362741)" fill="#ff933d" d="m22.981,78.62c0,3.4781-3.2153,6.2977-7.1816,6.2977s-7.1816-2.8196-7.1816-6.2977,3.2153-6.2977,7.1816-6.2977,7.1816,2.8196,7.1816,6.2977z" fill-rule="evenodd"/>
  <path transform="matrix(0.949606,0.000000,0.000000,0.949606,-4.456341e-3,-2.494173)" fill="#c2c2c2" d="M39.554,47.353c-0.221,0,18.12-17.899,18.12-17.899l0.441-10.828,14.585-10.164,8.838,8.6183-9.943,16.13-9.944-0.442-17.899,19.004-4.198-4.419z" fill-rule="evenodd"/>
  <path d="M41.764,47.574c0.662-0.442,16.572-16.794,16.572-16.794l1.105,1.546-16.131,16.573-1.546-1.325z" fill-rule="evenodd" fill-opacity="0.981651" transform="matrix(0.949606,0.000000,0.000000,0.949606,-4.456341e-3,-2.494173)" fill="#FFF"/>
  <path transform="matrix(0.949606,0.000000,0.000000,0.949606,-4.456341e-3,-2.494173)" fill="#e32116" d="M29.688,50.312c0,0.157,4.062-4.062,5.312-4.843,5-2.344,10.938,4.375,11.406,8.906-0.937,0.781-5,5.781-5,5.781-2.5-6.25-5.781-8.906-11.718-9.844z" fill-rule="evenodd"/>
  <path transform="matrix(0.949606,0.000000,0.000000,0.949606,-4.456341e-3,-2.494173)" fill="#ffc93f" d="M8.6179,72.764c7.0711-0.221,10.606,6.629,10.164,11.049,2.652-3.094,22.761-23.865,22.761-23.865,0.147-6.924-5.893-11.859-12.154-9.502l-20.771,22.318z" fill-rule="evenodd"/>
  <path transform="matrix(0.949606,0.000000,0.000000,0.949606,-4.456341e-3,-2.494173)" fill="#b01911" d="M37.753,51.307c4.972-2.606,2.295-2.847,3.545-3.629,0.249-2.343,4.64,2.166,5.108,6.697-0.937,0.781-5,5.781-5,5.781-2.5-6.25-1.914-6.696-3.653-8.849z" fill-rule="evenodd"/>
  <path transform="matrix(0.949606,0.000000,0.000000,0.949606,-4.456341e-3,-2.494173)" fill="url(#linearGradient603)" d="M60.104,19.952l9.944,10.386s9.502-13.479,9.281-13.479-6.629-5.967-6.629-5.967l-12.596,9.06z" fill-rule="evenodd"/>
  <path transform="matrix(0.949606,0.000000,0.000000,0.949606,-4.456341e-3,-2.494173)" fill="#ff933d" d="M13.921,76.079c3.536,1.547,5.303,3.314,4.861,7.734,2.652-3.094,22.761-23.865,22.761-23.865,0.147-4.714-2.799-7.881-4.42-7.513l-23.202,23.644z" fill-rule="evenodd"/>
  <path transform="matrix(0.949606,0.000000,0.000000,0.949606,-4.456341e-3,-2.494173)" fill="#FFF" d="M31.378,50.888l-19.446,19.888,3.536,1.988,0.221-2.651,17.236-18.341-1.547-0.884z" fill-rule="evenodd"/>
  <path transform="matrix(0.949606,0.000000,0.000000,0.949606,-4.456341e-3,-2.494173)" fill="#FFF" d="M36.571,46.248l-3.757,2.762s2.099,0.663,2.21,0.552c0.11-0.11,3.536-3.314,3.536-3.314s-2.21,0.331-1.989,0z" fill-rule="evenodd"/>
 </g>
</svg>
