<!-- Created with Sodipodi ("http://www.sodipodi.com/") -->
<svg xmlns:rdf="http://www.w3.org/1999/02/22-rdf-syntax-ns#" xmlns="http://www.w3.org/2000/svg" height="90" width="90" version="1.0" xmlns:cc="http://creativecommons.org/ns#" xmlns:dc="http://purl.org/dc/elements/1.1/">
 <metadata>
  <rdf:RDF>
   <cc:Work rdf:about="">
    <dc:format>image/svg+xml</dc:format>
    <dc:type rdf:resource="http://purl.org/dc/dcmitype/StillImage"/>
    <dc:title/>
   </cc:Work>
  </rdf:RDF>
 </metadata>
 <path d="M5.7088,45.85c1.1547,16.55,15.561,38.372,23.651,37.699,11.896-0.73,20.607-8.508,34.834-26.203,9.434-12.056,12.481-16.652,20.137-36.956,2.113-5.802-6.539-14.973-13.095-6.05-20.774,28.535-31.66,36.397-36.383,37.637-5.909,1.407-6.363-15.353-12.883-21.834-1.459-1.45-17.346,0.424-16.261,15.707z" fill-rule="evenodd" fill="#0d3c07"/>
 <path d="M9.846,47.074c2.014,10.873,14.498,34.097,19.788,32.961,5.505-1.204,12.161-6.987,24.254-20.66,16.194-18.015,22.152-30.955,25.172-35.782,6.59-10.791-2.369-7.755-9.824,2.966-5.916,8.714-30.569,39.969-36.541,32.883-2.87-3.532-7.701-19.077-12.047-23.397-0.973-0.967-12.738,0.841-10.802,11.029z" fill-rule="evenodd" fill="#2aaf18"/>
 <path stroke-linejoin="miter" d="M12.303,45.707c0.766-1.649,2.527-2.174,3.87-1.29,1.931,1.176,1.874,4.424,0.43,5.303-1.281,0.653-4.77-1.627-4.3-4.013z" fill-rule="evenodd" stroke="#FFF" stroke-linecap="butt" stroke-width="1.3426445pt" fill="#FFF"/>
 <path stroke-linejoin="miter" d="M24.343,69.645c2.256,3.754,11.231,2.214,13.475,0,5.28-5.356-1.966,5.655-8.458,5.59-4.657-0.048-8.469-11.097-5.017-5.59z" fill-rule="evenodd" stroke="#208c11" stroke-linecap="butt" stroke-width="1.3426445pt" fill="#208c11"/>
</svg>
