<!-- Created with Sodipodi ("http://www.sodipodi.com/") -->
<svg xmlns:rdf="http://www.w3.org/1999/02/22-rdf-syntax-ns#" xmlns="http://www.w3.org/2000/svg" height="90" width="90" version="1.0" y="0" x="0" xmlns:cc="http://creativecommons.org/ns#" xmlns:dc="http://purl.org/dc/elements/1.1/">
 <metadata>
  <rdf:RDF>
   <cc:Work rdf:about="">
    <dc:format>image/svg+xml</dc:format>
    <dc:type rdf:resource="http://purl.org/dc/dcmitype/StillImage"/>
    <dc:title/>
   </cc:Work>
  </rdf:RDF>
 </metadata>
 <path d="M25.359,8.5675c-2.639-2.6988-9.093,1.4785-11.799,4.1105-2.705,2.632-7.0623,8.972-4.4338,11.68l20.211,20.828-21.506,21.023c-2.699,2.638,1.9152,8.668,4.5471,11.373,2.632,2.706,8.549,7.502,11.244,4.859l21.55-21.133,19.612,20.265c2.625,2.712,10.226-0.314,12.931-2.946,2.706-2.632,5.912-10.119,3.301-12.845l-19.439-20.297,20.861-20.259c2.707-2.63-1.333-9.235-3.965-11.94-2.632-2.706-9.11-6.9132-11.826-4.2927l-21.033,20.291-20.255-20.716z" fill-rule="evenodd" fill="#2c0000"/>
 <path d="M24.045,12.679c-1.749-1.793-6.14,0.873-7.936,2.619-1.795,1.747-4.582,6.064-2.837,7.861l21.051,21.674-23.242,22.677c-1.7934,1.75,1.018,5.999,2.765,7.795,1.746,1.795,5.923,4.73,7.715,2.979l23.271-22.752,21.69,22.366c1.744,1.798,6.565-0.436,8.361-2.183,1.795-1.746,4.151-6.493,2.412-8.297l-21.575-22.387,22.181-21.555c1.797-1.746-0.872-6.141-2.619-7.936-1.747-1.796-6.061-4.58-7.861-2.838l-22.296,21.577-21.08-21.6z" fill-rule="evenodd" fill="#ff1500"/>
 <path d="M41.477,49.574l-22.927,22.621c-0.909,0.898-1.377,1.789-0.485,2.705,0.891,0.916,3.365,2.089,4.275,1.191l22.942-22.659,22.109,23.054c0.885,0.923,3.532-0.035,4.448-0.926,0.916-0.892,0.331-1.939-0.553-2.863l-22.05-23.065c-2.515-2.631-5.168-2.614-7.759-0.058z" fill-rule="evenodd" fill="#cb0000"/>
 <path d="M49.128,42.115l22.05-21.484c0.915-0.892,1.235-1.934,0.344-2.85s-3.36-2.083-4.275-1.191l-22.065,21.522-20.835-21.744c-0.884-0.923-3.531,0.035-4.447,0.927-0.917,0.891-0.331,1.938,0.552,2.862l20.776,21.755c2.514,2.632,5.294,2.743,7.9,0.203z" fill-rule="evenodd" fill="#FFF"/>
</svg>
