<!-- Created with Sodipodi ("http://www.sodipodi.com/") -->
<svg xmlns:rdf="http://www.w3.org/1999/02/22-rdf-syntax-ns#" xmlns="http://www.w3.org/2000/svg" height="90" width="90" version="1.0" xmlns:cc="http://creativecommons.org/ns#" xmlns:dc="http://purl.org/dc/elements/1.1/">
 <metadata>
  <rdf:RDF>
   <cc:Work rdf:about="">
    <dc:format>image/svg+xml</dc:format>
    <dc:type rdf:resource="http://purl.org/dc/dcmitype/StillImage"/>
    <dc:title/>
   </cc:Work>
  </rdf:RDF>
 </metadata>
 <defs>
  <linearGradient id="linearGradient615" y2="68.044" gradientUnits="userSpaceOnUse" y1="5.3679" x2="35.752" x1="50.644">
   <stop stop-color="#7fa8e3" stop-opacity="0.741176" offset="0"/>
   <stop stop-color="#FFF" stop-opacity="0" offset="1"/>
  </linearGradient>
 </defs>
 <path fill-rule="evenodd" fill="#000" d="M14.476,78.823c-2.424-1.102-5.7302-4.628-3.967-9.477,0.881-5.289,16.749-52.012,20.276-54.215,2.203-1.984,5.399-2.755,9.917-1.543,3.747,0.881,37.466,9.697,39.45,11.46,1.983,1.763,3.526,3.196,1.983,7.053-1.102,1.983-14.215,46.502-14.435,49.367-0.882,3.085-3.416,6.832-7.604,6.611-4.187-0.22-42.535-8.595-45.62-9.256z" fill-opacity="0.301471"/>
 <path fill="#3d4e67" d="M11.92,74.734c-2.4244-1.102-5.7302-4.629-3.967-9.477,0.8815-5.289,16.749-52.012,20.276-54.216,2.204-1.9834,5.399-2.7547,9.917-1.5426,3.747,0.8816,37.466,9.6976,39.45,11.461,1.983,1.763,3.526,3.195,1.983,7.052-1.101,1.984-14.215,46.502-14.435,49.367-0.882,3.086-3.416,6.832-7.604,6.612-4.187-0.221-42.535-8.595-45.62-9.256z" fill-rule="evenodd"/>
 <path fill="#FFF" d="M16.989,70.987c-2.534-0.661-6.171-1.322-4.849-5.289,2.425-9.697,14.766-46.943,20.056-51.571,1.212-1.102,5.289-1.543,13.003,0.881,8.815,2.645,26.667,8.595,28.43,9.477,1.763,0.881,2.424,0.881,1.102,4.848-1.984,3.967-10.799,37.907-13.003,43.637-1.543,4.078-1.873,5.951-4.518,5.951" fill-rule="evenodd"/>
 <path d="M12.816,74.753c-2.43-1.105-5.7449-4.64-3.9772-9.502,0.8839-5.303,16.794-52.149,20.329-54.359,2.21-1.9883,5.414-2.7617,9.944-1.5464,3.756,0.8844,37.565,9.7224,39.554,11.49,1.988,1.768,3.535,3.204,1.988,7.071-1.104,1.989-14.252,46.625-14.473,49.498-0.884,3.093-3.425,6.85-7.624,6.629-4.198-0.221-42.647-8.618-45.741-9.281z" fill-rule="evenodd" transform="matrix(0.997367,0.000000,0.000000,0.997367,-7.466104,-7.695992)" stroke-width="1pt" fill="#3d4e67"/>
 <path d="M17.899,70.996c-2.541-0.662-6.188-1.325-4.862-5.303,2.431-9.723,14.805-47.067,20.109-51.707,1.215-1.105,5.303-1.547,13.037,0.884,8.839,2.652,26.737,8.618,28.505,9.502s2.431,0.884,1.105,4.861c-1.989,3.977-10.827,38.007-13.037,43.752-1.547,4.088-1.878,5.966-4.53,5.966" fill-rule="evenodd" transform="matrix(0.997367,0.000000,0.000000,0.997367,-7.466104,-7.695992)" stroke-width="1pt" fill="#FFF"/>
 <path d="M28.75,13.75s3.125-6.25,10.938-4.375c7.812,1.875,38.437,10,38.124,12.5-0.312,2.5-5.937,17.187-6.25,18.437-0.312,1.25-29.062,0.626-40,7.188-10.937,6.562-19.062,12.188-19.062,12.188s11.25-35,16.25-45.938z" fill-rule="evenodd" transform="matrix(0.846968,0.000000,0.000000,0.846968,-0.594048,0.239086)" stroke-width="1pt" fill="url(#linearGradient615)"/>
 <path d="M29.243,15.899l40.599,10.789" transform="matrix(0.894577,0.000000,0.000000,0.894577,0.851777,0.634685)" stroke="#42667e" stroke-width="1pt" fill="none"/>
 <path d="M27.823,19.306l40.032,11.64" transform="matrix(0.894447,-1.524083e-2,1.524083e-2,0.894447,-2.503718,11.53508)" stroke="#42667e" stroke-width="1pt" fill="none"/>
 <path d="M29.243,15.899l40.599,10.789" transform="matrix(0.894577,0.000000,0.000000,0.894577,-7.837885,26.21919)" stroke="#42667e" stroke-width="1pt" fill="none"/>
 <path d="M27.823,19.306l40.032,11.64" transform="matrix(0.894447,-1.524083e-2,1.524083e-2,0.894447,-12.33262,34.55629)" stroke="#42667e" stroke-width="1pt" fill="none"/>
 <path stroke-linejoin="round" d="M6.53,44.858c-5.0158-3.265-3.7915-10.561,1.9873-10.753,5.6287-0.471,10.41,7.062,7.0977,11.321" transform="matrix(0.894577,0.000000,0.000000,0.894577,-0.164145,-0.127258)" stroke="#414141" stroke-linecap="round" stroke-width="3.125" fill="none"/>
 <path stroke-linejoin="round" d="M6.53,44.858c-5.0158-3.265-3.7915-10.561,1.9873-10.753,5.6287-0.471,10.41,7.062,7.0977,11.321" transform="matrix(0.894577,0.000000,0.000000,0.894577,3.137607,-8.508628)" stroke="#414141" stroke-linecap="round" stroke-width="3.125" fill="none"/>
 <path stroke-linejoin="round" d="M6.53,44.858c-5.0158-3.265-3.7915-10.561,1.9873-10.753,5.6287-0.471,10.41,7.062,7.0977,11.321" transform="matrix(0.894577,0.000000,0.000000,0.894577,6.185377,-16.89000)" stroke="#414141" stroke-linecap="round" stroke-width="3.125" fill="none"/>
 <path stroke-linejoin="round" d="M5.6782,43.864c-3.5962-1.703-2.9397-9.567,2.8391-9.759,5.6287-0.471,10.268,6.352,8.0917,11.321" transform="matrix(0.894577,0.000000,0.000000,0.894577,6.185377,-17.39795)" stroke="#b9b9b9" stroke-linecap="round" stroke-width="0.75" fill="none"/>
 <path stroke-linejoin="round" d="M5.6782,43.864c-3.5962-1.703-2.9397-9.567,2.8391-9.759,5.6287-0.471,10.268,6.352,8.0917,11.321" transform="matrix(0.894577,0.000000,0.000000,0.894577,3.137607,-9.016584)" stroke="#b9b9b9" stroke-linecap="round" stroke-width="0.75" fill="none"/>
 <path stroke-linejoin="round" d="M5.6782,43.864c-3.5962-1.703-2.9397-9.567,2.8391-9.759,5.6287-0.471,10.268,6.352,8.0917,11.321" transform="matrix(0.894577,0.000000,0.000000,0.894577,-0.164145,-0.635215)" stroke="#b9b9b9" stroke-linecap="round" stroke-width="0.75" fill="none"/>
 <path stroke="#42667e" stroke-width="0.89457703pt" d="M38.437,17.663,25.027,54.867" fill="none"/>
 <path stroke="#42667e" stroke-width="0.89457703pt" d="M50.837,21.196,37.427,58.4" fill="none"/>
 <text style="word-spacing:0px;letter-spacing:0px;writing-mode:lr-tb;text-anchor:start;text-align:start;" font-family="Sans" xml:space="preserve" transform="matrix(0.96105169,0.27636869,-0.27636869,0.96105169,0,0)" line-height="125%" font-stretch="normal" font-size="16px" font-variant="normal" y="17.718445" x="42.683205" font-weight="normal" font-style="normal" fill="#000000"><tspan y="17.718445" x="42.683205" font-weight="bold">x</tspan></text>
 <text style="word-spacing:0px;letter-spacing:0px;writing-mode:lr-tb;text-anchor:start;text-align:start;" font-family="Sans" xml:space="preserve" transform="matrix(0.96144725,0.27498943,-0.27498943,0.96144725,0,0)" line-height="125%" font-stretch="normal" font-size="16px" font-variant="normal" y="17.296877" x="56.174171" font-weight="normal" font-style="normal" fill="#000000"><tspan y="17.296877" x="56.174171" font-weight="bold">y</tspan></text>
 <text style="word-spacing:0px;letter-spacing:0px;writing-mode:lr-tb;text-anchor:start;text-align:start;" font-family="Sans" xml:space="preserve" transform="matrix(1.0795052,0.29314271,-0.38507688,0.82178158,0,0)" line-height="125%" font-stretch="normal" font-size="12.53577423px" font-variant="normal" y="35.526588" x="31.343454" font-weight="normal" font-style="normal" fill="#000000"><tspan y="35.526588" x="31.343454" font-weight="bold">1</tspan></text>
 <text style="word-spacing:0px;letter-spacing:0px;writing-mode:lr-tb;text-anchor:start;text-align:start;" font-family="Sans" xml:space="preserve" transform="matrix(1.0795052,0.29314271,-0.38507689,0.8217816,0,0)" line-height="125%" font-stretch="normal" font-size="12.53577423px" font-variant="normal" y="49.365715" x="31.751471" font-weight="normal" font-style="normal" fill="#000000"><tspan y="49.365715" x="31.751471" font-weight="bold">2</tspan></text>
 <text style="word-spacing:0px;letter-spacing:0px;writing-mode:lr-tb;text-anchor:start;text-align:start;" font-family="Sans" xml:space="preserve" transform="matrix(1.0795052,0.29314271,-0.38507689,0.8217816,0,0)" line-height="125%" font-stretch="normal" font-size="12.53577423px" font-variant="normal" y="35.407616" x="41.182552" font-weight="normal" font-style="normal" fill="#000000"><tspan y="35.407616" x="41.182552" font-weight="bold">..</tspan></text>
 <text style="word-spacing:0px;letter-spacing:0px;writing-mode:lr-tb;text-anchor:start;text-align:start;" font-family="Sans" xml:space="preserve" transform="matrix(1.0795052,0.29314271,-0.38507689,0.8217816,0,0)" line-height="125%" font-stretch="normal" font-size="12.53577423px" font-variant="normal" y="35.522606" x="52.429211" font-weight="normal" font-style="normal" fill="#000000"><tspan y="35.522606" x="52.429211" font-weight="bold">..</tspan></text>
 <text style="word-spacing:0px;letter-spacing:0px;writing-mode:lr-tb;text-anchor:start;text-align:start;" font-family="Sans" xml:space="preserve" transform="matrix(1.0795052,0.29314271,-0.38507689,0.8217816,0,0)" line-height="125%" font-stretch="normal" font-size="12.53577423px" font-variant="normal" y="48.962135" x="53.974018" font-weight="normal" font-style="normal" fill="#000000"><tspan y="48.962135" x="53.974018" font-weight="bold">..</tspan></text>
 <g stroke-width="1pt" transform="matrix(1.4597436,-1.0626704,1.0626704,1.4597436,16.641968,37.275735)" fill-rule="evenodd">
  <g font-size="12px" transform="matrix(1.008714,0,0,1.008714,-45.46822,-0.252175)">
   <path fill="#0d3c07" d="m51.966,36.049c1.9937,0.9968,13.506-1.2773,13.791-3.4133,1.1166-3.5514-1.9125-4.8576-1.6932-6.3995,0.4272-1.4241,5.3257-6.9264,4.7718-8.6553-1.5935-3.1443-5.8656-7.0137-8.8764-5.1424-2.5949,2.3432-4.3287,8.277-5.8952,7.7074s-2.9521-0.0821-3.3793,0.9147-0.9968,14.276,1.2816,14.988z" transform="matrix(1.369638,0,0,1.207417,-21.85404,-4.997635)"/>
   <path d="m51.551,35.459c1.9937,0.9968,12.674-0.5697,12.959-2.7057,0.2848-2.1361-2.8481-3.5602-2.4209-4.9842,0.4272-1.4241,7.4051-10.111,6.1234-11.25-1.2816-1.1393-5.5538-5.1266-6.693-3.845-1.1393,1.2817-6.4082,11.108-7.9747,10.538-1.5665-0.5696-2.8481-1.8512-3.2753-0.8544s-0.9968,12.389,1.2816,13.101z" fill="#2aaf18"/>
   <path d="m67.642,15.949s1.4241,0.8544,0.4272,2.5633c-0.9968,1.7088-6.5506,9.2563-6.1234,9.8259,1.5664,1.2816,3.4177,4.4145,2.4209,5.269-1.7088,1.5664-11.535,2.7057-12.674,2.1361-1.1392-0.5697,8.4019-2.2785,8.5443-4.6994s-2.4208-3.4177-1.5664-4.8418c0.8544-1.424,6.693-11.25,7.5475-10.965,0.8544,0.2848,1.5664,1.2817,1.424,0.7121z" fill="#208c11"/>
  </g>
  <path fill="#FFF" d="m16.946,4.6519s-7.6899,9.5411-7.4051,10.396c0.28481,0.8544,7.8323-6.5507,7.4051-10.396z" transform="matrix(1.008714,0,0,1.008714,0.929487,8.797523)"/>
  <path fill="#FFF" d="m5.4114,24.019s-0.99683-6.5506-0.56962-7.6899c0.42722-1.1392,1.8513,0.712,1.8513,0.712s-1.7089,6.1235-1.2816,6.9779z" transform="matrix(1.008714,0,0,1.008714,0.929487,8.797523)"/>
 </g>
 <text style="word-spacing:0px;letter-spacing:0px;writing-mode:lr-tb;text-anchor:start;text-align:start;" font-family="Sans" xml:space="preserve" transform="matrix(1.0795052,0.29314271,-0.38507689,0.8217816,0,0)" line-height="125%" font-stretch="normal" font-size="12.53577423px" font-variant="normal" y="48.965252" x="42.246456" font-weight="normal" font-style="normal" fill="#000000"><tspan y="48.965252" x="42.246456" font-weight="bold">..</tspan></text>
</svg>
