<!-- Generator: Adobe Illustrator 12.0.0, SVG Export Plug-In . SVG Version: 6.00 Build 51448)  -->
<svg xmlns:rdf="http://www.w3.org/1999/02/22-rdf-syntax-ns#" xmlns="http://www.w3.org/2000/svg" xml:space="preserve" height="90" viewBox="0 0 90.000003 89.999999" width="90" version="1.0" enable-background="new 0 0 416.813 420.354" xmlns:cc="http://creativecommons.org/ns#" xmlns:dc="http://purl.org/dc/elements/1.1/" overflow="visible"><metadata><rdf:RDF><cc:Work rdf:about=""><dc:format>image/svg+xml</dc:format><dc:type rdf:resource="http://purl.org/dc/dcmitype/StillImage"/><dc:title/></cc:Work></rdf:RDF></metadata><g transform="matrix(0.20512821,0,0,0.20512776,2.2585381,69.643141)"><path opacity="0.5" d="m-349.11,30.28c0,139.69-122.01,252.92-272.52,252.92s-272.52-113.24-272.52-252.92c0-139.69,122.01-252.92,272.52-252.92s272.52,113.24,272.52,252.92z" stroke-dashoffset="0" transform="matrix(0.7145856,0,0,0.76994083,652.6109,-143.49062)" stroke="#000" stroke-miterlimit="4" stroke-dasharray="0.70866144, 0.70866144" stroke-width="0.70866144" fill="#FFF"/><g transform="translate(-4.6310425e-6,-330.35452)"><circle r="143.36" d="m 351.77,210.17999 c 0,79.17554 -64.18445,143.36 -143.36,143.36 -79.17554,0 -143.359997,-64.18446 -143.359997,-143.36 0,-79.17554 64.184457,-143.359998 143.359997,-143.359998 79.17555,0 143.36,64.184458 143.36,143.359998 z" stroke="#000" cy="210.18" cx="208.41" stroke-width="10" fill="#FFF"/><circle r="86.017" d="m 294.427,210.17999 c 0,47.50588 -38.51112,86.017 -86.017,86.017 -47.50587,0 -86.01699,-38.51112 -86.01699,-86.017 0,-47.50587 38.51112,-86.017 86.01699,-86.017 47.50588,0 86.017,38.51113 86.017,86.017 z" stroke="#000" cy="210.18" cx="208.41" stroke-width="10" fill="#FFF"/><circle cy="210.18" cx="208.41" r="30.966" d="m 239.376,210.17999 c 0,17.10205 -13.86395,30.966 -30.966,30.966 -17.10205,0 -30.966,-13.86395 -30.966,-30.966 0,-17.10205 13.86395,-30.966 30.966,-30.966 17.10205,0 30.966,13.86395 30.966,30.966 z"/><line stroke-width="10" x1="208.41" y1="24.336" stroke="#000" x2="208.41" y2="396.02" fill="#FFF"/><line stroke-width="10" x1="394.25" y1="210.18" stroke="#000" x2="22.566" y2="210.18" fill="#FFF"/><circle d="m 236.72801,202.21001 c 0,11.72942 -9.50858,21.238 -21.238,21.238 -11.72943,0 -21.23801,-9.50858 -21.23801,-21.238 0,-11.72943 9.50858,-21.238 21.23801,-21.238 11.72942,0 21.238,9.50857 21.238,21.238 z" cy="202.21" cx="215.49" r="21.238" fill="#ed1c24"/></g></g></svg>
