<!-- Generator: Adobe Illustrator 12.0.0, SVG Export Plug-In . SVG Version: 6.00 Build 51448)  -->
<svg xmlns:rdf="http://www.w3.org/1999/02/22-rdf-syntax-ns#" xmlns="http://www.w3.org/2000/svg" xml:space="preserve" height="90" viewBox="0 0 90.000003 89.999999" width="90" version="1.0" enable-background="new 0 0 416.813 420.354" xmlns:cc="http://creativecommons.org/ns#" xmlns:dc="http://purl.org/dc/elements/1.1/" overflow="visible"><metadata><rdf:RDF><cc:Work rdf:about=""><dc:format>image/svg+xml</dc:format><dc:type rdf:resource="http://purl.org/dc/dcmitype/StillImage"/><dc:title/></cc:Work></rdf:RDF></metadata><g transform="matrix(0.20512821,0,0,0.20512776,2.2585381,69.643141)"><path opacity="0.5" d="m-349.11,30.28c0,139.69-122.01,252.92-272.52,252.92s-272.52-113.24-272.52-252.92c0-139.69,122.01-252.92,272.52-252.92s272.52,113.24,272.52,252.92z" stroke-dashoffset="0" transform="matrix(0.7145856,0,0,0.76994083,652.6109,-143.49062)" stroke="#000" stroke-miterlimit="4" stroke-dasharray="0.70866144, 0.70866144" stroke-width="0.70866144" fill="#FFF"/><g transform="translate(-4.6310425e-6,-330.35452)"><circle r="143.36" d="m 351.77,210.17999 c 0,79.17554 -64.18445,143.36 -143.36,143.36 -79.17554,0 -143.359997,-64.18446 -143.359997,-143.36 0,-79.17554 64.184457,-143.359998 143.359997,-143.359998 79.17555,0 143.36,64.184458 143.36,143.359998 z" stroke="#000" cy="210.18" cx="208.41" stroke-width="10" fill="#FFF"/><circle r="86.017" d="m 294.427,210.17999 c 0,47.50588 -38.51112,86.017 -86.017,86.017 -47.50587,0 -86.01699,-38.51112 -86.01699,-86.017 0,-47.50587 38.51112,-86.017 86.01699,-86.017 47.50588,0 86.017,38.51113 86.017,86.017 z" stroke="#000" cy="210.18" cx="208.41" stroke-width="10" fill="#FFF"/><circle cy="210.18" cx="208.41" r="30.966" d="m 239.376,210.17999 c 0,17.10205 -13.86395,30.966 -30.966,30.966 -17.10205,0 -30.966,-13.86395 -30.966,-30.966 0,-17.10205 13.86395,-30.966 30.966,-30.966 17.10205,0 30.966,13.86395 30.966,30.966 z"/><line stroke-width="10" x1="208.41" y1="24.336" stroke="#000" x2="208.41" y2="396.02" fill="#FFF"/><line stroke-width="10" x1="394.25" y1="210.18" stroke="#000" x2="22.566" y2="210.18" fill="#FFF"/><circle d="m 236.72801,202.21001 c 0,11.72942 -9.50858,21.238 -21.238,21.238 -11.72943,0 -21.23801,-9.50858 -21.23801,-21.238 0,-11.72943 9.50858,-21.238 21.23801,-21.238 11.72942,0 21.238,9.50857 21.238,21.238 z" cy="202.21" cx="215.49" r="21.238" fill="#ed1c24"/></g></g><g transform="matrix(0.65511456,0,0,0.65511456,32.219683,31.662796)" fill-rule="evenodd"><path d="M25.359,8.5675c-2.639-2.6988-9.093,1.4785-11.799,4.1105-2.705,2.632-7.0623,8.972-4.4338,11.68l20.211,20.828-21.506,21.023c-2.699,2.6384,1.9152,8.6682,4.547,11.374,2.6318,2.7054,8.5491,7.5017,11.244,4.859l21.55-21.134,19.612,20.265c2.6248,2.7122,10.226-0.31381,12.931-2.9456,2.7054-2.6318,5.9118-10.119,3.3011-12.845l-19.439-20.297,20.861-20.259c2.707-2.63-1.333-9.235-3.965-11.94-2.632-2.706-9.11-6.9132-11.826-4.2927l-21.033,20.291-20.255-20.716z" fill="#2c0000"/><path d="m24.045,12.679c-1.7496-1.7927-6.1403,0.87286-7.9358,2.6195-1.7955,1.7467-4.5826,6.0636-2.8374,7.8605l21.051,21.674-23.242,22.678c-1.7929,1.7494,1.0184,5.9986,2.7651,7.7942,1.7467,1.7955,5.9238,4.7301,7.715,2.979l23.271-22.751,21.69,22.366c1.7439,1.7982,6.5651-0.43611,8.3607-2.1828,1.7955-1.7467,4.1508-6.4936,2.4125-8.2973l-21.576-22.387,22.181-21.555c1.7964-1.7457-0.87286-6.1403-2.6195-7.9358-1.7467-1.7955-6.0605-4.5794-7.8605-2.8374l-22.297,21.576-21.08-21.6z" fill="#ff1500"/><path d="M41.477,49.574,18.55,72.195c-0.9098,0.89766-1.3769,1.7887-0.48567,2.7048,0.8912,0.91612,3.3657,2.0886,4.275,1.1905l22.943-22.658,22.109,23.054c0.88464,0.92246,3.5317-0.03539,4.4478-0.9266,0.91612-0.8912,0.33068-1.9389-0.55252-2.8627l-22.05-23.064c-2.5149-2.6306-5.1675-2.6135-7.7581-0.05751z" fill="#cb0000"/><path d="m49.128,42.115,22.05-21.484c0.91541-0.89194,1.2352-1.9343,0.34405-2.8504-0.8912-0.91612-3.3601-2.0829-4.275-1.1905l-22.065,21.522-20.835-21.744c-0.88424-0.92284-3.5317,0.0354-4.4478,0.9266-0.91612,0.8912-0.3302,1.9384,0.55252,2.8628l20.776,21.754c2.5135,2.6319,5.2932,2.7428,7.8998,0.20309z" fill="#FFF"/></g></svg>
