<!-- Generator: Adobe Illustrator 12.0.0, SVG Export Plug-In . SVG Version: 6.00 Build 51448)  -->
<svg xmlns:rdf="http://www.w3.org/1999/02/22-rdf-syntax-ns#" xmlns="http://www.w3.org/2000/svg" xml:space="preserve" height="90" viewBox="0 0 90.000003 89.999999" width="90" version="1.0" enable-background="new 0 0 416.813 420.354" xmlns:cc="http://creativecommons.org/ns#" xmlns:dc="http://purl.org/dc/elements/1.1/" overflow="visible"><metadata><rdf:RDF><cc:Work rdf:about=""><dc:format>image/svg+xml</dc:format><dc:type rdf:resource="http://purl.org/dc/dcmitype/StillImage"/><dc:title/></cc:Work></rdf:RDF></metadata><g transform="matrix(0.20512821,0,0,0.20512776,2.2585381,69.643141)"><path opacity="0.5" d="m-349.11,30.28c0,139.69-122.01,252.92-272.52,252.92s-272.52-113.24-272.52-252.92c0-139.69,122.01-252.92,272.52-252.92s272.52,113.24,272.52,252.92z" stroke-dashoffset="0" transform="matrix(0.7145856,0,0,0.76994083,652.6109,-143.49062)" stroke="#000" stroke-miterlimit="4" stroke-dasharray="0.70866144, 0.70866144" stroke-width="0.70866144" fill="#FFF"/><g transform="translate(-4.6310425e-6,-330.35452)"><circle r="143.36" d="m 351.77,210.17999 c 0,79.17554 -64.18445,143.36 -143.36,143.36 -79.17554,0 -143.359997,-64.18446 -143.359997,-143.36 0,-79.17554 64.184457,-143.359998 143.359997,-143.359998 79.17555,0 143.36,64.184458 143.36,143.359998 z" stroke="#000" cy="210.18" cx="208.41" stroke-width="10" fill="#FFF"/><circle r="86.017" d="m 294.427,210.17999 c 0,47.50588 -38.51112,86.017 -86.017,86.017 -47.50587,0 -86.01699,-38.51112 -86.01699,-86.017 0,-47.50587 38.51112,-86.017 86.01699,-86.017 47.50588,0 86.017,38.51113 86.017,86.017 z" stroke="#000" cy="210.18" cx="208.41" stroke-width="10" fill="#FFF"/><circle cy="210.18" cx="208.41" r="30.966" d="m 239.376,210.17999 c 0,17.10205 -13.86395,30.966 -30.966,30.966 -17.10205,0 -30.966,-13.86395 -30.966,-30.966 0,-17.10205 13.86395,-30.966 30.966,-30.966 17.10205,0 30.966,13.86395 30.966,30.966 z"/><line stroke-width="10" x1="208.41" y1="24.336" stroke="#000" x2="208.41" y2="396.02" fill="#FFF"/><line stroke-width="10" x1="394.25" y1="210.18" stroke="#000" x2="22.566" y2="210.18" fill="#FFF"/><circle d="m 236.72801,202.21001 c 0,11.72942 -9.50858,21.238 -21.238,21.238 -11.72943,0 -21.23801,-9.50858 -21.23801,-21.238 0,-11.72943 9.50858,-21.238 21.23801,-21.238 11.72942,0 21.238,9.50857 21.238,21.238 z" cy="202.21" cx="215.49" r="21.238" fill="#ed1c24"/></g></g><g transform="matrix(0.59841089,0,0,0.59841089,36.401545,33.709314)" fill-rule="evenodd"><path stroke="#0d3d07" stroke-width="1.34464312" d="m8.8332,32.008c-3.3719-0.06507-4.7185,9.6546-4.7185,13.027,0,3.3725,1.3461,12.796,4.7185,12.763l23.551-0.2322,0.06528,24.227c0.0091,3.3725,9.1256,4.4385,12.498,4.4385,3.3725,0,11.984-1.0661,11.969-4.4385l-0.10879-24.589,23.347,0.3298c3.3721,0.04762,6.1703-9.1256,6.1703-12.498,0-3.3725-2.2689-11.943-5.6413-11.969l-25.111-0.198-0.507-24.131c-0.071-3.3717-6.745-4.8999-10.117-4.8999-3.3725,0-11.953,2.0565-11.969,5.429l-0.109,23.204-24.037-0.464z" fill="#0d3d07"/><path d="m11.177,36.204c-2.2382,0.004-3.7956,6.5926-3.7956,8.8308s1.0284,8.2999,3.2666,8.3018l25.674,0.02145,0.04333,27.428c0.0035,2.2382,5.799,3.0852,8.0373,3.0852,2.2382,0,8.5722-0.58239,8.5663-2.8206l-0.0722-27.493,25.987-0.22118c2.2382-0.01906,3.8111-6.0636,3.8111-8.3018s-1.8376-8.2688-4.0756-8.3018l-26.723-0.3945,0.27897-26.049c0.02395-2.2381-5.5346-3.0021-7.7728-3.0021s-7.9617,1.0297-8.0373,3.2666l-0.86574,25.607-24.323,0.04334z" fill="#2aaf18"/><path d="m46.462,50.936,0.20359,28.778c0.0081,1.142,0.28774,1.9963,1.4297,1.9963s3.4347-0.85429,3.426-1.9963l-0.219-28.811,28.541,0.204c1.142,0.0082,2.1778-2.284,2.1778-3.426s-1.0358-1.4198-2.1778-1.4298l-28.512-0.248c-3.2517-0.02826-4.8935,1.6813-4.8705,4.933z" fill="#208c11"/><path d="M43.277,38.48,43.255,10.972c-0.000915-1.142-0.46922-1.9963-1.6112-1.9963s-3.4275,0.85427-3.426,1.9963l0.03684,27.541-26.907-0.20359c-1.142-0.0086-2.1777,2.284-2.1777,3.426s1.0358,1.4192,2.1777,1.4298l26.878,0.24778c3.2517,0.02998,5.0546-1.6812,5.052-4.933z" fill="#ebf8e9"/></g></svg>
