<!-- Created with Inkscape (http://www.inkscape.org/) -->
<svg xmlns:rdf="http://www.w3.org/1999/02/22-rdf-syntax-ns#" xmlns="http://www.w3.org/2000/svg" height="90" width="90" version="1.0" y="0" x="0" xmlns:cc="http://creativecommons.org/ns#" xmlns:dc="http://purl.org/dc/elements/1.1/">
 <metadata>
  <rdf:RDF>
   <cc:Work rdf:about="">
    <dc:format>image/svg+xml</dc:format>
    <dc:type rdf:resource="http://purl.org/dc/dcmitype/StillImage"/>
    <dc:title/>
   </cc:Work>
  </rdf:RDF>
 </metadata>
 <g stroke-width="1pt" transform="matrix(-1.642104,2.25411,2.25411,1.642104,52.069101,-130.20461)" font-size="12px" fill-rule="evenodd">
  <path d="M51.966,36.049c1.994,0.996,13.506-1.278,13.791-3.414,0.416-5.322-10.126-11.92-11.693-12.489-1.566-0.57-2.952-0.083-3.379,0.914s-0.997,14.276,1.281,14.989z" transform="matrix(1.369638,0,0,1.207417,-21.85404,-4.997635)" fill="#0d3c07"/>
  <path d="M51.551,35.459c1.993,0.997,12.674-0.57,12.959-2.706,0.284-2.136-3.555-3.085-3.127-4.509-4.365-5.095-10.687-6.883-11.114-5.886-0.427,0.996-0.997,12.389,1.282,13.101z" fill="#2aaf18"/>
  <path d="M61.946,28.339c1.567,1.281,3.418,4.414,2.421,5.269-1.709,1.566-11.535,2.705-12.674,2.136-1.139-0.57,8.402-2.279,8.544-4.7,0.143-2.421-2.779-3.049-1.925-4.473,0.855-1.424,3.207,1.198,3.634,1.768z" fill="#208c11"/>
 </g>
 <path d="M42.016,39.849s-13.129-13.004-16.399-13.912c-3.269-0.907-1.435,5.343-1.435,5.343s16.609,6.203,17.834,8.569z" fill-rule="evenodd" stroke-width="1pt" fill="#FFF"/>
 <path d="M81.311,11.4l-7.702-0.826c-3.822-0.22-6.16-0.363-11.235,0.057l0.79,68.69c4.979,1.344,6.874,1.737,11.275,1.01,3.146-0.841,0.756-0.1,4.878-1.53,0.345,0.797,3.25-64.614,1.994-67.401z" fill-rule="evenodd" stroke-width="1pt" fill="#0d3c07"/>
 <path d="M77.465,14.114c-1.677-0.616-3.352-0.726-5.026-0.836-1.675-0.11-3.171-0.305-5.023,0.176l0.229,64.092c1.468,0.715,2.934,1.008,4.399,1.048s2.302-0.088,4.392-0.807l1.029-63.673z" fill-rule="evenodd" stroke-width="1pt" fill="#2aaf18"/>
 <path d="M68.374,14.211l0.062,62.744s1.646,0.398,3.301,0.459c1.654,0.061,3.318-0.216,3.359-0.216,0.081,0,0.321-1.097-0.821-2.529-1.293-1.525-3.476,0.407-3.496-0.922l-0.861-59.369c-0.006-0.37-1.545-1.295-1.544-0.167z" fill-rule="evenodd" stroke-width="1pt" fill="#208c11"/>
 <path d="M76.267,15.28c-1.43-1.575-3.802-0.671-3.802-0.558,1.681,5.067,1.415,30.302,1.415,30.302,0.34,1.069,0.829,4.501,1.144,4.56,0.279,0.053,0.618-3.237,0.638-4.225l0.605-30.079z" fill-rule="evenodd" stroke-width="1pt" fill="#FFF"/>
</svg>
