<!-- Created with Inkscape (http://www.inkscape.org/) -->
<svg xmlns:rdf="http://www.w3.org/1999/02/22-rdf-syntax-ns#" xmlns="http://www.w3.org/2000/svg" height="90" width="90" version="1.0" y="0" x="0" xmlns:cc="http://creativecommons.org/ns#" xmlns:dc="http://purl.org/dc/elements/1.1/">
 <metadata>
  <rdf:RDF>
   <cc:Work rdf:about="">
    <dc:format>image/svg+xml</dc:format>
    <dc:type rdf:resource="http://purl.org/dc/dcmitype/StillImage"/>
    <dc:title/>
   </cc:Work>
  </rdf:RDF>
 </metadata>
 <g stroke-width="1pt" transform="matrix(1.739502,2.387805,-2.387805,1.739502,36.890923,-140.77952)" font-size="12px" fill-rule="evenodd">
  <path d="M51.966,36.049c1.994,0.996,13.506-1.278,13.791-3.414,0.416-5.322-10.126-11.92-11.693-12.489-1.566-0.57-2.952-0.083-3.379,0.914s-0.997,14.276,1.281,14.989z" transform="matrix(1.369638,0,0,1.207417,-21.85404,-4.997635)" fill="#0d3c07"/>
  <path d="M51.551,35.459c1.993,0.997,12.674-0.57,12.959-2.706,0.284-2.136-3.555-3.085-3.127-4.509-4.365-5.095-10.687-6.883-11.114-5.886-0.427,0.996-0.997,12.389,1.282,13.101z" fill="#2aaf18"/>
  <path d="M61.946,28.339c1.567,1.281,3.418,4.414,2.421,5.269-1.709,1.566-11.535,2.705-12.674,2.136-1.139-0.57,8.402-2.279,8.544-4.7,0.143-2.421-2.779-3.049-1.925-4.473,0.855-1.424,3.207,1.198,3.634,1.768z" fill="#208c11"/>
 </g>
 <path d="M47.541,39.36s13.907-13.775,17.371-14.736c3.463-0.962,1.52,5.659,1.52,5.659s-17.594,6.571-18.891,9.077z" fill-rule="evenodd" stroke-width="1pt" fill="#FFF"/>
 <path d="M5.915,9.224l8.158-0.8748c4.049-0.2332,6.526-0.3845,11.902,0.0598l-0.837,72.765c-5.274,1.424-7.282,1.84-11.944,1.07-3.3328-0.892-0.8-0.106-5.1669-1.621-0.3654,0.844-3.4431-68.447-2.1121-71.399z" fill-rule="evenodd" stroke-width="1pt" fill="#0d3c07"/>
 <path d="M9.9888,12.099c1.7762-0.653,3.5502-0.77,5.3242-0.886,1.774-0.117,3.359-0.323,5.321,0.186l-0.243,67.895c-1.554,0.757-3.108,1.067-4.66,1.11-1.552,0.042-2.438-0.093-4.653-0.856l-1.0892-67.449z" fill-rule="evenodd" stroke-width="1pt" fill="#2aaf18"/>
 <path d="M19.619,12.202l-0.066,66.465s-1.743,0.422-3.496,0.486c-1.753,0.065-3.516-0.228-3.559-0.228-0.086,0-0.34-1.162,0.87-2.679,1.369-1.616,3.682,0.431,3.703-0.977l0.913-62.891c0.005-0.391,1.636-1.371,1.635-0.176z" fill-rule="evenodd" stroke-width="1pt" fill="#208c11"/>
 <path d="M11.257,13.334c1.516-1.669,4.028-0.71,4.028-0.591-1.78,5.367-1.499,32.099-1.499,32.099-0.36,1.133-0.878,4.768-1.212,4.831-0.295,0.056-0.655-3.429-0.676-4.476l-0.641-31.863z" fill-rule="evenodd" stroke-width="1pt" fill="#FFF"/>
</svg>
