<!-- Created with Sodipodi ("http://www.sodipodi.com/") -->
<svg xmlns:rdf="http://www.w3.org/1999/02/22-rdf-syntax-ns#" xmlns="http://www.w3.org/2000/svg" height="90" width="90" version="1" y="0" x="0" xmlns:cc="http://creativecommons.org/ns#" xmlns:xlink="http://www.w3.org/1999/xlink" xmlns:dc="http://purl.org/dc/elements/1.1/">
 <metadata>
  <rdf:RDF>
   <cc:Work rdf:about="">
    <dc:format>image/svg+xml</dc:format>
    <dc:type rdf:resource="http://purl.org/dc/dcmitype/StillImage"/>
    <dc:title/>
   </cc:Work>
  </rdf:RDF>
 </metadata>
 <defs>
  <linearGradient id="linearGradient3340">
   <stop stop-color="#ffb700" offset="0"/>
   <stop stop-color="#ffd58f" stop-opacity="0" offset="1"/>
  </linearGradient>
  <linearGradient id="linearGradient3367" x1="60.645" xlink:href="#linearGradient3340" gradientUnits="userSpaceOnUse" y1="19.296" gradientTransform="matrix(-1.418885,-0.200635,-0.127692,1.110535,131.75858,7.389349)" x2="35.371" y2="69.143"/>
  <linearGradient id="linearGradient3370" x1="85.638" xlink:href="#linearGradient3340" gradientUnits="userSpaceOnUse" y1="17.444" gradientTransform="matrix(-1.0509199,-0.1486035,-0.1724016,1.4993733,118.65828,5.713269)" x2="73.916" y2="54.628"/>
 </defs>
 <path d="M69.628,10.212c0.685-0.079,10.737-3.2428,10.542,2.373-0.195,5.615-3.503,46.32-7.689,51.371-1.951,3.251-6.54,7.892-14.054,10.533-6.103,2.135-41.725,13.934-44.406,13.731-2.68-0.202-8.3822,0.402-8.8123-5.654-0.4302-6.057-2.5779-22.482-2.3558-28.93,0.8801-5.695-1.7859-9.951,5.2707-14.152,4.6734-1.456,52.405-22.377,54.983-23.247,2.579-0.869,4.68-1.178,6.521-6.025z" fill-opacity="0.30147101" fill-rule="evenodd" stroke-width="1pt" fill="#000009"/>
 <path stroke-width="1pt" fill="#593a28" d="M78.703,10.291c0.685-0.079,10.737-3.2427,10.542,2.373-0.195,5.615-8.078,45.791-12.264,50.842-1.951,3.251-6.54,7.893-14.053,10.534-6.104,2.134-45.478,12.411-48.158,12.208s-8.3826,0.402-8.8127-5.655c-0.4302-6.056,0.5517-42.875,0.9131-44.058,0.88-5.695,6.6396-8.76,9.2376-9.803,4.674-1.455,48.994-15.719,51.572-16.589,2.579-0.8694,9.307-2.5631,11.023,0.148z" fill-rule="evenodd"/>
 <path stroke-width="1pt" fill="#f1e36c" d="m74.436,11.75s0.48213,0.75922,0.9375,1.4062c-9.9607,4.6416-12.206,6.054-15.094,8.4688-2.8374,2.3729-1.7557,8.4807-3.8438,11.125-2.9224,3.7009-22.168,8.7375-23.906,9.4062-2.9983,1.1534-6.064,4.0838-7.5625,7.2188-6.6998,14.016-8.3551,23.71-9.375,29.625,6.9626-11.166,7.0984-29.62,21-34.688,7.1721-1.631,19.454-6.7572,21.219-7.375,6.1716-2.1599,1.0082-11.432,9.75-15.875,3.3912-1.7236,9.1997-4.6194,13.375-6.6875,2.3787-0.12058,4.2687,0.85288,3.5625,3.0938-0.68067,3.9597-6.4763,42.41-15.438,47.844-8.9788,7.5475-53.832,16.949-55,17.312-1.1683,0.36377-3.5979-0.1478-3.5625-4.375,0.035446-4.2272-0.22826-36.216,0.65625-38.031,0.33932-2.9498,1.8551-6.26,6.125-8.125,4.269-1.864,55.825-20.531,57.155-20.343z" fill-rule="evenodd"/>
 <path stroke-width="1pt" fill="url(#linearGradient3370)" d="m59.311,22.812c-1.6333,2.8151-1.0741,7.6568-2.875,9.9375-2.9224,3.7009-22.168,8.7375-23.906,9.4062-2.9983,1.1534-6.064,4.0838-7.5625,7.2188-3.8134,7.9777-5.9546,14.504-7.3125,19.781-2.0193,4.7516-3.4411,8.3345-3.4062,8.0312,0.099753-0.86755,0.26221-37.52,2.375-40.219,1.8188-2.3235,33.486-11.516,42.688-14.156z" fill-rule="evenodd"/>
 <path stroke-width="1pt" fill="url(#linearGradient3367)" d="M83.925,19.088c-2.652,0.408-12.858,5.095-16.195,8.436-1.705,3.749-0.792,11.54-7.571,15.07-6.778,3.531-22.474,4.593-25.12,8.209s-13.762,25.262-14.643,27.381c-0.881,2.12,48.96-10.342,51.177-15.764,3.032-5.423,7.68-16.56,12.352-43.332z" fill-rule="evenodd"/>
 <g stroke-width="1pt" transform="matrix(1.4597436,-1.0626704,1.0626704,1.4597436,-16.150764,10.933721)" fill-rule="evenodd">
  <g font-size="12px" transform="matrix(1.008714,0,0,1.008714,-45.46822,-0.252175)">
   <path fill="#0d3c07" d="m51.966,36.049c1.9937,0.9968,13.506-1.2773,13.791-3.4133,1.1166-3.5514-1.9125-4.8576-1.6932-6.3995,0.4272-1.4241,5.3257-6.9264,4.7718-8.6553-1.5935-3.1443-5.8656-7.0137-8.8764-5.1424-2.5949,2.3432-4.3287,8.277-5.8952,7.7074s-2.9521-0.0821-3.3793,0.9147-0.9968,14.276,1.2816,14.988z" transform="matrix(1.369638,0,0,1.207417,-21.85404,-4.997635)"/>
   <path d="m51.551,35.459c1.9937,0.9968,12.674-0.5697,12.959-2.7057,0.2848-2.1361-2.8481-3.5602-2.4209-4.9842,0.4272-1.4241,7.4051-10.111,6.1234-11.25-1.2816-1.1393-5.5538-5.1266-6.693-3.845-1.1393,1.2817-6.4082,11.108-7.9747,10.538-1.5665-0.5696-2.8481-1.8512-3.2753-0.8544s-0.9968,12.389,1.2816,13.101z" fill="#2aaf18"/>
   <path d="m67.642,15.949s1.4241,0.8544,0.4272,2.5633c-0.9968,1.7088-6.5506,9.2563-6.1234,9.8259,1.5664,1.2816,3.4177,4.4145,2.4209,5.269-1.7088,1.5664-11.535,2.7057-12.674,2.1361-1.1392-0.5697,8.4019-2.2785,8.5443-4.6994s-2.4208-3.4177-1.5664-4.8418c0.8544-1.424,6.693-11.25,7.5475-10.965,0.8544,0.2848,1.5664,1.2817,1.424,0.7121z" fill="#208c11"/>
  </g>
  <path fill="#FFF" d="m16.946,4.6519s-7.6899,9.5411-7.4051,10.396c0.28481,0.8544,7.8323-6.5507,7.4051-10.396z" transform="matrix(1.008714,0,0,1.008714,0.929487,8.797523)"/>
  <path fill="#FFF" d="m5.4114,24.019s-0.99683-6.5506-0.56962-7.6899c0.42722-1.1392,1.8513,0.712,1.8513,0.712s-1.7089,6.1235-1.2816,6.9779z" transform="matrix(1.008714,0,0,1.008714,0.929487,8.797523)"/>
 </g>
</svg>
