<!-- Created with Inkscape (http://www.inkscape.org/) -->
<svg xmlns:rdf="http://www.w3.org/1999/02/22-rdf-syntax-ns#" xmlns="http://www.w3.org/2000/svg" height="90" width="90" version="1.1" xmlns:cc="http://creativecommons.org/ns#" xmlns:dc="http://purl.org/dc/elements/1.1/">
 <metadata>
  <rdf:RDF>
   <cc:Work rdf:about="">
    <dc:format>image/svg+xml</dc:format>
    <dc:type rdf:resource="http://purl.org/dc/dcmitype/StillImage"/>
    <dc:title/>
   </cc:Work>
  </rdf:RDF>
 </metadata>
 <g fill-rule="nonzero" transform="translate(-0.0787316,-962.25223)">
  <path d="m87.579,979.66-0.27195,1.6867-68.717,62.433-3.685,1.7152c-4.124-4.5569-8.2032-9.0903-12.326-13.648,0.91565-1.6694,1.3078-3.7635,2.4129-5.1415l26.445-20.446c0.13445-0.6376,0.91056-0.5398,1.2599-0.932l25.027-19.55,20.817-15.817,1.2334-0.17213c2.5932,3.3051,5.4298,6.3953,7.805,9.8715" fill="#1f8030"/>
  <path d="m46.929,1014.2-29.887,26.832-11.258-12.725,2.4047-1.869,3.2827,4.3633c0.45936,0.032,0.61213-0.5337,0.60908-0.8331-0.99408-1.3577-1.9607-2.7572-3.0515-4.0507,0.5551-0.7476,1.5645-1.3495,2.3497-2.0808,2.6451,3.2175,4.9572,6.5959,7.8987,9.5089,0.53371-0.4033,1.042-0.7608,1.4677-1.2854-2.7296-2.9679-4.3949-6.7426-7.2723-9.5598,0.34528-0.6926,1.3964-1.2671,2.1308-1.9108,1.1336,1.32,1.979,2.8264,3.4284,3.9132,0.44815-0.1538,0.98186-0.5561,0.43797-1.0542-1.0094-1.1255-1.702-2.4852-2.7113-3.6127,0.94214-0.9971,2.3233-2.037,3.4803-2.7887,1.2823,1.1672,2.0829,2.6481,3.3652,3.8164,0.1925-0.1233,0.4563-0.2679,0.54084-0.5164-0.65898-1.5186-1.8008-2.7225-2.751-4.0537,0.62436-1.0654,2.0982-1.7509,3.1024-2.6533,1.1153,1.2498,2.3284,2.4363,3.2511,3.8113,0.28213-0.074,0.54491-0.2179,0.70176-0.4848l-2.7969-4.0792c0.49703-0.5428,1.4229-1.3118,2.2377-1.7875,2.5952,2.5901,4.2625,5.9513,6.8577,8.5414,0.49603-0.5429,1.3995-0.9676,2.0004-1.6887-1.9393-3.1004-4.7178-5.6814-6.6897-8.6219l2.09-1.6367,3.2318,3.739,0.54593-0.217c-0.66917-1.4045-1.757-2.698-2.804-3.9651,0.66917-1.0389,1.9566-1.7142,2.9354-2.5718,0.99815,0.9422,1.9749,2.527,2.9334,3.7431,0.37991,0.162,0.49908-0.2434,0.71705-0.4135-0.63353-1.5634-2.142-2.4465-2.8458-3.9906l3.1574-2.4424c1.2182,1.0725,2.0523,2.3945,3.0097,3.6107,0.43287,0.073,0.50825-0.3586,0.77001-0.5032l-2.9772-3.7685c0.99306-0.3718,2.1246-2.5097,2.9772-1.1174l5.4012,6.8556c0.80565-0.661,2.7195-1.3882,1.1183-2.6237-1.7773-2.0523-3.0729-4.4194-5.0417-6.3464,0.91464-0.95334,2.0187-1.6184,3.0148-2.4047,1.0348,1.0817,1.6327,2.5035,2.8417,3.3907,0.45935,0.0295,0.50722-0.3575,0.79648-0.54593l-2.8335-3.5058,2.5718-1.9505c1.1122,0.94926,1.8843,2.1746,2.7521,3.3377l0.88509-0.49399c-0.96352-1.1-1.8588-2.2204-2.752-3.3387,0.53778-0.81788,1.6775-1.3424,2.4903-2.1175,1.0124,0.71296,1.9627,2.0421,2.7154,3.1982l0.75575-0.27298c-0.53371-1.3261-1.6592-2.4587-2.6665-3.5862,0.78019-0.31676,1.4127-1.4962,2.1308-1.1957,1.7977,2.4231,3.7003,4.6689,5.5062,6.9769,0.63454-0.165,1.2008-0.72723,1.6795-1.3404-1.6765-2.53-3.6056-4.7331-5.4043-7.1541,0.5999-0.72213,1.5013-1.4463,2.4129-1.9851,0.61214,1.1917,1.6358,2.09,2.2489,3.2837l0.88409-0.495c-0.40131-1.2487-1.4881-2.2418-2.2489-3.2827,0.57546-0.6763,1.5797-1.5787,2.5361-2.092,1.0043,0.82704,1.5461,2.0381,2.308,3.08l0.6213-0.35139c-0.30454-1.3108-1.4433-2.2153-2.1776-3.3l2.1409-1.7254c0.99509,0.64065,1.7682,1.867,2.4322,2.972,0.28009-0.0743,0.51842-0.17417,0.67426-0.44102-0.5938-1.1214-1.3302-2.2071-2.142-3.1605,0.80057-0.24547,1.4422-1.9546,2.2285-0.95741l4.3939,5.7282c0.7201-0.11406,1.429-0.71194,1.9067-1.3251l-4.4693-6.3108c0.67529-1.154,2.1491-1.8405,3.1982-2.7144,0.7476,0.55509,1.4483,1.7997,2.1277,2.6726l0.62334-0.34936c0.29028-1.6164-4.0222-3.3072-0.47871-4.2717l6.5053,7.919-38.558,34.627" fill="#FFF"/>
  <g transform="matrix(0.6066651,0.08861896,-0.08861896,0.6066651,-158.93295,710.35278)">
   <path d="m377.16,380.92,0,47.72c-5.9556,0.58642-11.323,2.6829-17.109,3.6049-0.83894-0.33391-0.16779-1.7593-0.25252-2.1779l1.2592-0.8406c-1.8457-10.064-3.1032-20.294-4.2778-30.61-0.50336,1.7609-2.1779,1.0051-3.1863,0.58643l-6.8776-4.7794c2.4321-4.7811,5.2845-9.3928,7.886-14.089,7.2099-1.7609,14.255-4.0269,22.14-4.193l0.41864,4.7794" fill="#1f8030"/>
   <path d="m379.47,376.14,0,47.718c-5.9556,0.58807-11.323,2.6846-17.109,3.6066-0.83894-0.33557-0.16612-1.7626-0.25251-2.1812l1.2592-0.83729c-1.8457-10.064-3.1032-20.296-4.2778-30.612-0.5017,1.7609-2.1796,1.0067-3.1846,0.58809l-6.8793-4.7811c2.4337-4.7811,5.2845-9.3928,7.8843-14.089,7.2132-1.7609,14.257-4.0252,22.14-4.193l0.4203,4.7811" fill="#1f8030"/>
   <path d="m375.19,374.72c-0.92532,14.843-0.92532,31.785,0.83562,46.713-3.271,0.33724-6.4573,0.92366-9.4775,1.8457-1.9271-11.323-1.7609-24.321-4.0252-35.895l-0.16779-0.16779-4.8642,5.1997-5.4506-3.6066c2.6846-3.2694,3.8591-7.2115,6.0387-10.65,6.1201-0.25085,11.322-2.5999,17.111-3.4388" fill="#a03000"/>
  </g>
  <g transform="matrix(0.60736525,0.08368584,-0.08368584,0.60736525,-93.695875,734.65121)">
   <path d="m347.94,408.18c3.6066,8.6386-2.2643,16.772-7.0421,23.734l-8.0521,8.303,0.41864,0.33392c4.9472-2.0101,10.232-3.1846,15.096-5.3659-2.9354,6.7098-6.2065,13.25-8.8064,20.128-10.315,1.844-20.213,5.2828-30.024,7.6318-0.58809,0.50337-2.1812,1.4254-3.6066,1.4254-2.0118-6.3759-4.2761-12.579-6.6234-18.786,8.8894-4.9489,18.616-9.5606,25.745-18.45,0.58808-2.0982,3.1032-4.4472,1.0067-6.7098-3.2694-2.349-6.9607,0.0831-10.062,1.0067-4.5303,2.4321-8.9741,4.7811-13.084,8.0505-0.50337-0.50337-1.5948-0.58643-1.5948-1.3406,2.1829-6.7946,4.1947-13.587,6.0387-20.55,8.808-5.1997,19.291-6.959,30.361-6.037,3.9405,0.83728,8.1335,2.6015,10.23,6.6251" fill="#1f8030"/>
   <path d="m350.88,404.33c3.6066,8.6386-2.2643,16.774-7.0438,23.734l-8.0538,8.303,0.42029,0.33557c4.9489-2.0134,10.232-3.1863,15.096-5.3675-2.9354,6.7082-6.2048,13.25-8.8047,20.13-10.316,1.844-20.211,5.2811-30.024,7.6302-0.58642,0.50336-2.1812,1.4254-3.6082,1.4254-2.0101-6.3743-4.2761-12.579-6.6234-18.787,8.8894-4.9456,18.619-9.5589,25.746-18.448,0.58643-2.0965,3.1016-4.4455,1.0051-6.7098-3.2694-2.3474-6.959,0.0831-10.064,1.0084-4.5269,2.4304-8.9725,4.7778-13.082,8.0505-0.5017-0.50502-1.5932-0.58808-1.5932-1.3423,2.1812-6.7929,4.1947-13.587,6.0387-20.548,8.8064-5.1998,19.291-6.9607,30.36-6.037,3.9438,0.83728,8.1352,2.5982,10.232,6.6234" fill="#1f8030"/>
   <path d="m346.27,406.34c2.0965,4.3625-0.24919,9.3944-1.7609,13.504-4.193,7.798-10.733,15.347-18.114,21.135l-0.67115,3.7727c6.4573-0.41865,12.413-3.0202,18.535-4.6117-0.41864,2.0948-1.5932,4.9472-2.5999,7.0454-9.9808,2.0118-19.708,4.6117-29.185,7.881-0.83727-3.8558-1.4254-7.798-2.5999-11.491,9.6436-4.5253,21.135-11.738,24.572-22.724,0-3.4388-1.1728-7.1285-4.4422-8.4708-6.9624-3.5235-13.672,0.92366-19.375,4.0252,0.75422-3.1016,1.8457-6.0387,2.2643-9.2233,7.9691-3.693,16.858-6.4606,26.755-5.2845,2.3474,1.2559,5.3659,1.5101,6.6234,4.4422" fill="#a03000"/>
  </g>
 </g>
</svg>
