<!-- Created with Sodipodi ("http://www.sodipodi.com/") -->
<svg xmlns:rdf="http://www.w3.org/1999/02/22-rdf-syntax-ns#" xmlns="http://www.w3.org/2000/svg" height="90" width="90" version="1.0" xmlns:cc="http://creativecommons.org/ns#" xmlns:xlink="http://www.w3.org/1999/xlink" xmlns:dc="http://purl.org/dc/elements/1.1/">
 <metadata>
  <rdf:RDF>
   <cc:Work rdf:about="">
    <dc:format>image/svg+xml</dc:format>
    <dc:type rdf:resource="http://purl.org/dc/dcmitype/StillImage"/>
    <dc:title/>
   </cc:Work>
  </rdf:RDF>
 </metadata>
 <defs>
  <linearGradient id="linearGradient615" y2="68.044" gradientUnits="userSpaceOnUse" x2="35.752" gradientTransform="matrix(0.960363,0,0,0.960363,3.8000346,-1.1561084)" y1="5.3679" x1="50.644">
   <stop stop-color="#7fa8e3" stop-opacity="0.741176" offset="0"/>
   <stop stop-color="#FFF" stop-opacity="0" offset="1"/>
  </linearGradient>
 </defs>
 <rect fill-opacity="0.25098" height="90" width="90" y="0" x="0" fill="#000"/>
 <rect fill-opacity="0.25098" height="85" width="85" y="2.5" x="2.5" fill="#FFF"/>
 <path d="M19.416,89.016c-3.477-0.051-9.305-2.176-9.8143-7.877-1.7947-5.761-8.0338-60.209-5.0232-64.002,1.5556-2.9858,4.9431-5.1776,10.97-5.9374,4.9315-0.75567,49.789-6.6613,53.096-5.7447,3.3078,0.91669,5.9134,1.6918,6.1513,6.289-0.24464,2.5002,8.0871,53.496,9.3652,56.503,0.60989,3.5223-0.39127,8.4446-5.4918,10.066-5.1004,1.6214-55.227,10.014-59.254,10.703z" fill-opacity="0.29411765" fill-rule="evenodd" fill="#000"/>
 <path d="M23.185,84.454c-3.477-0.051-9.306-2.176-9.815-7.877-1.794-5.761-8.0335-60.209-5.0229-64.002,1.5556-2.9858,4.9431-5.1776,10.97-5.9374,4.9315-0.75567,49.789-6.6613,53.096-5.7447,3.3078,0.91669,5.9134,1.6918,6.1513,6.289-0.24464,2.5002,8.0871,53.496,9.3652,56.503,0.60989,3.5223-0.39127,8.4446-5.4918,10.066-5.1004,1.6214-55.227,10.014-59.254,10.703z" fill-rule="evenodd" fill="#3d4e67"/>
 <path d="m27.202,78.415c-3.3708,0.44533-8.0529,1.3763-8.6122-3.2356-2.3289-10.918-7.6685-54.186-3.8638-61.218,0.84979-1.6535,5.4636-3.8978,15.944-4.8348,11.91-1.1988,36.348-3.0218,38.92-2.9034,2.5715,0.11845,3.3582-0.17293,3.9176,4.4391-0.22716,4.9033,7.5307,43.26,7.989,50.052,0.3566,4.821,0.9703,6.8693-2.1763,8.0348" fill-rule="evenodd" fill="#FFF"/>
 <path fill-rule="evenodd" fill="url(#linearGradient615)" d="m15.569,20.49s0.30316-6.543,9.0295-7.846c8.7263-1.3029,43.286-5.744,44.11-3.4767,0.8234,2.2673,1.8429,17.002,2.0971,18.194,0.25427,1.1919-29.001,11.385-37.035,21.113-8.0334,9.7278-13.66,17.599-13.66,17.599s-4.6002-34.308-4.542-45.583z"/>
 <g transform="matrix(0.10476279,-0.01720413,0.01720413,0.10476279,33.890319,33.429568)">
  <circle stroke-width="10" d="m 351.77,210.177 c 0,79.1772 -64.1858,143.36301 -143.363,143.36301 -79.1772,0 -143.363009,-64.18581 -143.363009,-143.36301 0,-79.1772 64.185809,-143.363005 143.363009,-143.363005 79.1772,0 143.363,64.185805 143.363,143.363005 z" cx="208.41" cy="210.18" stroke="#000" r="143.36" fill="#FFF"/>
  <circle stroke-width="10" d="m 294.424,210.177 c 0,47.50588 -38.51113,86.017 -86.017,86.017 -47.50588,0 -86.017,-38.51112 -86.017,-86.017 0,-47.50587 38.51112,-86.017 86.017,-86.017 47.50587,0 86.017,38.51113 86.017,86.017 z" cx="208.41" cy="210.18" stroke="#000" r="86.017" fill="#FFF"/>
  <circle d="m 239.373,210.177 c 0,17.10205 -13.86395,30.966 -30.966,30.966 -17.10205,0 -30.966,-13.86395 -30.966,-30.966 0,-17.10205 13.86395,-30.966 30.966,-30.966 17.10205,0 30.966,13.86395 30.966,30.966 z" cx="208.41" cy="210.18" r="30.966"/>
  <line stroke-width="10" x1="208.41" y1="24.336" stroke="#000" x2="208.41" y2="396.02" fill="#FFF"/>
  <line stroke-width="10" x1="394.25" y1="210.18" stroke="#000" x2="22.566" y2="210.18" fill="#FFF"/>
  <circle d="m 236.72399,202.21201 c 0,11.72942 -9.50857,21.238 -21.238,21.238 -11.72942,0 -21.238,-9.50858 -21.238,-21.238 0,-11.72943 9.50858,-21.23801 21.238,-21.23801 11.72943,0 21.238,9.50858 21.238,21.23801 z" cx="215.49" cy="202.21" r="21.238" fill="#ed1c24"/>
 </g>
 <g transform="matrix(0.10478404,-0.01115417,0.01115417,0.10478404,8.534339,9.1913198)">
  <circle stroke-width="10" d="m 351.77,210.177 c 0,79.1772 -64.1858,143.36301 -143.363,143.36301 -79.1772,0 -143.363009,-64.18581 -143.363009,-143.36301 0,-79.1772 64.185809,-143.363005 143.363009,-143.363005 79.1772,0 143.363,64.185805 143.363,143.363005 z" cx="208.41" cy="210.18" stroke="#000" r="143.36" fill="#FFF"/>
  <circle stroke-width="10" d="m 294.424,210.177 c 0,47.50588 -38.51113,86.017 -86.017,86.017 -47.50588,0 -86.017,-38.51112 -86.017,-86.017 0,-47.50587 38.51112,-86.017 86.017,-86.017 47.50587,0 86.017,38.51113 86.017,86.017 z" cx="208.41" cy="210.18" stroke="#000" r="86.017" fill="#FFF"/>
  <circle d="m 239.373,210.177 c 0,17.10205 -13.86395,30.966 -30.966,30.966 -17.10205,0 -30.966,-13.86395 -30.966,-30.966 0,-17.10205 13.86395,-30.966 30.966,-30.966 17.10205,0 30.966,13.86395 30.966,30.966 z" cx="208.41" cy="210.18" r="30.966"/>
  <line stroke-width="10" x1="208.41" y1="24.336" stroke="#000" x2="208.41" y2="396.02" fill="#FFF"/>
  <line stroke-width="10" x1="394.25" y1="210.18" stroke="#000" x2="22.566" y2="210.18" fill="#FFF"/>
  <circle d="m 236.72399,202.21201 c 0,11.72942 -9.50857,21.238 -21.238,21.238 -11.72942,0 -21.238,-9.50858 -21.238,-21.238 0,-11.72943 9.50858,-21.23801 21.238,-21.23801 11.72943,0 21.238,9.50858 21.238,21.23801 z" cx="215.49" cy="202.21" r="21.238" fill="#ed1c24"/>
 </g>
 <g transform="matrix(0.65511454,0,0,0.65511454,28.406494,29.487329)" fill-rule="evenodd">
  <path d="M25.359,8.5675c-2.639-2.6988-9.093,1.4785-11.799,4.1105-2.705,2.632-7.0623,8.972-4.4338,11.68l20.211,20.828-21.506,21.023c-2.699,2.6384,1.9152,8.6682,4.547,11.374,2.6318,2.7054,8.5491,7.5017,11.244,4.859l21.55-21.134,19.612,20.265c2.6248,2.7122,10.226-0.31381,12.931-2.9456,2.7054-2.6318,5.9118-10.119,3.3011-12.845l-19.439-20.297,20.861-20.259c2.707-2.63-1.333-9.235-3.965-11.94-2.632-2.706-9.11-6.9132-11.826-4.2927l-21.033,20.291-20.255-20.716z" fill="#2c0000"/>
  <path d="m24.045,12.679c-1.7496-1.7927-6.1403,0.87286-7.9358,2.6195-1.7955,1.7467-4.5826,6.0636-2.8374,7.8605l21.051,21.674-23.242,22.678c-1.7929,1.7494,1.0184,5.9986,2.7651,7.7942,1.7467,1.7955,5.9238,4.7301,7.715,2.979l23.271-22.751,21.69,22.366c1.7439,1.7982,6.5651-0.43611,8.3607-2.1828,1.7955-1.7467,4.1508-6.4936,2.4125-8.2973l-21.576-22.387,22.181-21.555c1.7964-1.7457-0.87286-6.1403-2.6195-7.9358-1.7467-1.7955-6.0605-4.5794-7.8605-2.8374l-22.297,21.576-21.08-21.6z" fill="#ff1500"/>
  <path d="M41.477,49.574,18.55,72.195c-0.9098,0.89766-1.3769,1.7887-0.48567,2.7048,0.8912,0.91612,3.3657,2.0886,4.275,1.1905l22.943-22.658,22.109,23.054c0.88464,0.92246,3.5317-0.03539,4.4478-0.9266,0.91612-0.8912,0.33068-1.9389-0.55252-2.8627l-22.05-23.064c-2.5149-2.6306-5.1675-2.6135-7.7581-0.05751z" fill="#cb0000"/>
  <path d="m49.128,42.115,22.05-21.484c0.91541-0.89194,1.2352-1.9343,0.34405-2.8504-0.8912-0.91612-3.3601-2.0829-4.275-1.1905l-22.065,21.522-20.835-21.744c-0.88424-0.92284-3.5317,0.0354-4.4478,0.9266-0.91612,0.8912-0.3302,1.9384,0.55252,2.8628l20.776,21.754c2.5135,2.6319,5.2932,2.7428,7.8998,0.20309z" fill="#FFF"/>
 </g>
</svg>
