<!-- Created with Sodipodi ("http://www.sodipodi.com/") -->
<svg xmlns:rdf="http://www.w3.org/1999/02/22-rdf-syntax-ns#" xmlns="http://www.w3.org/2000/svg" height="90" width="90" version="1.0" xmlns:cc="http://creativecommons.org/ns#" xmlns:dc="http://purl.org/dc/elements/1.1/">
 <metadata>
  <rdf:RDF>
   <cc:Work rdf:about="">
    <dc:format>image/svg+xml</dc:format>
    <dc:type rdf:resource="http://purl.org/dc/dcmitype/StillImage"/>
    <dc:title/>
   </cc:Work>
  </rdf:RDF>
 </metadata>
 <defs>
  <linearGradient id="linearGradient615" x1="50.644" gradientUnits="userSpaceOnUse" y1="5.3679" gradientTransform="matrix(0.960363,0,0,0.960363,3.8000346,-1.1561084)" x2="35.752" y2="68.044">
   <stop stop-color="#7fa8e3" stop-opacity="0.741176" offset="0"/>
   <stop stop-color="#FFF" stop-opacity="0" offset="1"/>
  </linearGradient>
 </defs>
 <path fill-rule="evenodd" fill="#000" d="M19.416,89.016c-3.477-0.051-9.305-2.176-9.8143-7.877-1.7947-5.761-8.0338-60.209-5.0232-64.002,1.5556-2.9858,4.9431-5.1776,10.97-5.9374,4.9315-0.75567,49.789-6.6613,53.096-5.7447,3.3078,0.91669,5.9134,1.6918,6.1513,6.289-0.24464,2.5002,8.0871,53.496,9.3652,56.503,0.60989,3.5223-0.39127,8.4446-5.4918,10.066-5.1004,1.6214-55.227,10.014-59.254,10.703z" fill-opacity="0.29411765"/>
 <path fill="#3d4e67" d="M23.185,84.454c-3.477-0.051-9.306-2.176-9.815-7.877-1.794-5.761-8.0335-60.209-5.0229-64.002,1.5556-2.9858,4.9431-5.1776,10.97-5.9374,4.9315-0.75567,49.789-6.6613,53.096-5.7447,3.3078,0.91669,5.9134,1.6918,6.1513,6.289-0.24464,2.5002,8.0871,53.496,9.3652,56.503,0.60989,3.5223-0.39127,8.4446-5.4918,10.066-5.1004,1.6214-55.227,10.014-59.254,10.703z" fill-rule="evenodd"/>
 <path fill="#FFF" d="m27.202,78.415c-3.3708,0.44533-8.0529,1.3763-8.6122-3.2356-2.3289-10.918-7.6685-54.186-3.8638-61.218,0.84979-1.6535,5.4636-3.8978,15.944-4.8348,11.91-1.1988,36.348-3.0218,38.92-2.9034,2.5715,0.11845,3.3582-0.17293,3.9176,4.4391-0.22716,4.9033,7.5307,43.26,7.989,50.052,0.3566,4.821,0.9703,6.8693-2.1763,8.0348" fill-rule="evenodd"/>
 <path fill="url(#linearGradient615)" d="m15.569,20.49s0.30316-6.543,9.0295-7.846c8.7263-1.3029,43.286-5.744,44.11-3.4767,0.8234,2.2673,1.8429,17.002,2.0971,18.194,0.25427,1.1919-29.001,11.385-37.035,21.113-8.0334,9.7278-13.66,17.599-13.66,17.599s-4.6002-34.308-4.542-45.583z" fill-rule="evenodd"/>
 <g transform="matrix(0.10476279,-0.01720413,0.01720413,0.10476279,33.890319,33.429568)">
  <circle r="143.36" d="m 351.77,210.17999 c 0,79.17554 -64.18445,143.36 -143.36,143.36 -79.17554,0 -143.359997,-64.18446 -143.359997,-143.36 0,-79.17554 64.184457,-143.359998 143.359997,-143.359998 79.17555,0 143.36,64.184458 143.36,143.359998 z" stroke="#000" cy="210.18" cx="208.41" stroke-width="10" fill="#FFF"/>
  <circle r="86.017" d="m 294.427,210.17999 c 0,47.50588 -38.51112,86.017 -86.017,86.017 -47.50587,0 -86.01699,-38.51112 -86.01699,-86.017 0,-47.50587 38.51112,-86.017 86.01699,-86.017 47.50588,0 86.017,38.51113 86.017,86.017 z" stroke="#000" cy="210.18" cx="208.41" stroke-width="10" fill="#FFF"/>
  <circle cy="210.18" cx="208.41" r="30.966" d="m 239.376,210.17999 c 0,17.10205 -13.86395,30.966 -30.966,30.966 -17.10205,0 -30.966,-13.86395 -30.966,-30.966 0,-17.10205 13.86395,-30.966 30.966,-30.966 17.10205,0 30.966,13.86395 30.966,30.966 z"/>
  <line y2="396.02" stroke-width="10" x2="208.41" stroke="#000" y1="24.336" x1="208.41" fill="#FFF"/>
  <line y2="210.18" stroke-width="10" x2="22.566" stroke="#000" y1="210.18" x1="394.25" fill="#FFF"/>
  <circle d="m 236.72801,202.21001 c 0,11.72942 -9.50858,21.238 -21.238,21.238 -11.72943,0 -21.23801,-9.50858 -21.23801,-21.238 0,-11.72943 9.50858,-21.238 21.23801,-21.238 11.72942,0 21.238,9.50857 21.238,21.238 z" cy="202.21" cx="215.49" r="21.238" fill="#ed1c24"/>
 </g>
 <g transform="matrix(0.10478404,-0.01115417,0.01115417,0.10478404,8.534339,9.1913198)">
  <circle r="143.36" d="m 351.77,210.17999 c 0,79.17554 -64.18445,143.36 -143.36,143.36 -79.17554,0 -143.359997,-64.18446 -143.359997,-143.36 0,-79.17554 64.184457,-143.359998 143.359997,-143.359998 79.17555,0 143.36,64.184458 143.36,143.359998 z" stroke="#000" cy="210.18" cx="208.41" stroke-width="10" fill="#FFF"/>
  <circle r="86.017" d="m 294.427,210.17999 c 0,47.50588 -38.51112,86.017 -86.017,86.017 -47.50587,0 -86.01699,-38.51112 -86.01699,-86.017 0,-47.50587 38.51112,-86.017 86.01699,-86.017 47.50588,0 86.017,38.51113 86.017,86.017 z" stroke="#000" cy="210.18" cx="208.41" stroke-width="10" fill="#FFF"/>
  <circle cy="210.18" cx="208.41" r="30.966" d="m 239.376,210.17999 c 0,17.10205 -13.86395,30.966 -30.966,30.966 -17.10205,0 -30.966,-13.86395 -30.966,-30.966 0,-17.10205 13.86395,-30.966 30.966,-30.966 17.10205,0 30.966,13.86395 30.966,30.966 z"/>
  <line y2="396.02" stroke-width="10" x2="208.41" stroke="#000" y1="24.336" x1="208.41" fill="#FFF"/>
  <line y2="210.18" stroke-width="10" x2="22.566" stroke="#000" y1="210.18" x1="394.25" fill="#FFF"/>
  <circle d="m 236.72801,202.21001 c 0,11.72942 -9.50858,21.238 -21.238,21.238 -11.72943,0 -21.23801,-9.50858 -21.23801,-21.238 0,-11.72943 9.50858,-21.238 21.23801,-21.238 11.72942,0 21.238,9.50857 21.238,21.238 z" cy="202.21" cx="215.49" r="21.238" fill="#ed1c24"/>
 </g>
 <g transform="matrix(0.59841087,0,0,0.59841087,31.159978,32.159669)" fill-rule="evenodd">
  <path stroke="#0d3d07" stroke-width="1.34464312" d="m8.8332,32.008c-3.3719-0.06507-4.7185,9.6546-4.7185,13.027,0,3.3725,1.3461,12.796,4.7185,12.763l23.551-0.2322,0.06528,24.227c0.0091,3.3725,9.1256,4.4385,12.498,4.4385,3.3725,0,11.984-1.0661,11.969-4.4385l-0.10879-24.589,23.347,0.3298c3.3721,0.04762,6.1703-9.1256,6.1703-12.498,0-3.3725-2.2689-11.943-5.6413-11.969l-25.111-0.198-0.507-24.131c-0.071-3.3717-6.745-4.8999-10.117-4.8999-3.3725,0-11.953,2.0565-11.969,5.429l-0.109,23.204-24.037-0.464z" fill="#0d3d07"/>
  <path d="m11.177,36.204c-2.2382,0.004-3.7956,6.5926-3.7956,8.8308s1.0284,8.2999,3.2666,8.3018l25.674,0.02145,0.04333,27.428c0.0035,2.2382,5.799,3.0852,8.0373,3.0852,2.2382,0,8.5722-0.58239,8.5663-2.8206l-0.0722-27.493,25.987-0.22118c2.2382-0.01906,3.8111-6.0636,3.8111-8.3018s-1.8376-8.2688-4.0756-8.3018l-26.723-0.3945,0.27897-26.049c0.02395-2.2381-5.5346-3.0021-7.7728-3.0021s-7.9617,1.0297-8.0373,3.2666l-0.86574,25.607-24.323,0.04334z" fill="#2aaf18"/>
  <path d="m46.462,50.936,0.20359,28.778c0.0081,1.142,0.28774,1.9963,1.4297,1.9963s3.4347-0.85429,3.426-1.9963l-0.219-28.811,28.541,0.204c1.142,0.0082,2.1778-2.284,2.1778-3.426s-1.0358-1.4198-2.1778-1.4298l-28.512-0.248c-3.2517-0.02826-4.8935,1.6813-4.8705,4.933z" fill="#208c11"/>
  <path d="M43.277,38.48,43.255,10.972c-0.000915-1.142-0.46922-1.9963-1.6112-1.9963s-3.4275,0.85427-3.426,1.9963l0.03684,27.541-26.907-0.20359c-1.142-0.0086-2.1777,2.284-2.1777,3.426s1.0358,1.4192,2.1777,1.4298l26.878,0.24778c3.2517,0.02998,5.0546-1.6812,5.052-4.933z" fill="#ebf8e9"/>
 </g>
</svg>
