<!-- Created with Inkscape (http://www.inkscape.org/) -->
<svg xmlns:rdf="http://www.w3.org/1999/02/22-rdf-syntax-ns#" xmlns="http://www.w3.org/2000/svg" height="90" width="90" version="1.1" xmlns:cc="http://creativecommons.org/ns#" xmlns:dc="http://purl.org/dc/elements/1.1/">
 <defs>
  <clipPath id="clipPath3373" clipPathUnits="userSpaceOnUse">
   <path d="m6880.6,2965.1,242.2-307.88-392.75,243.43,52.34-236.27-157.09,178.99-52.39-400.95-78.51,386.64-98.21-286.4-19.23,243.43-229.51-143.19,144.01,293.54-144.01,0,124.37,114.55-281.5,78.77,255.28,64.43-111.23,100.26,163.63,0-150.55,272.05,255.28-200.48-13.08,136.05,85.12-107.41,26.17,179.01,85.06-128.88,144.05,307.89-52.39-336.53,268.41,236.27-124.36-315.01,176.71,78.74-124.37-171.83,261.83-71.6-242.2-93.06,189.86-78.8-202.94-35.76"/>
  </clipPath>
 </defs>
 <metadata>
  <rdf:RDF>
   <cc:Work rdf:about="">
    <dc:format>image/svg+xml</dc:format>
    <dc:type rdf:resource="http://purl.org/dc/dcmitype/StillImage"/>
    <dc:title/>
   </cc:Work>
  </rdf:RDF>
 </metadata>
 <g fill="#962c23" transform="matrix(0.06487262,0,0,-0.06487262,-380.76225,245.94492)">
  <g fill="#962c23" clip-path="url(#clipPath3373)">
   <path d="m6880.6,2965.1,242.2-307.88-392.75,243.43,52.34-236.27-157.09,178.99-52.39-400.95-78.51,386.64-98.21-286.4-19.23,243.43-229.51-143.19,144.01,293.54-144.01,0,124.37,114.55-281.5,78.77,255.28,64.43-111.23,100.26,163.63,0-150.55,272.05,255.28-200.48-13.08,136.05,85.12-107.41,26.17,179.01,85.06-128.88,144.05,307.89-52.39-336.53,268.41,236.27-124.36-315.01,176.71,78.74-124.37-171.83,261.83-71.6-242.2-93.06,189.86-78.8-202.94-35.76" fill-rule="nonzero" fill="#962c23"/>
  </g>
 </g>
 <path d="m44.762,30.018c2.1901,0.46643,3.9079,0.83231,6.2524-1.2644,0.77653,3.4155,2.1817,4.3711,4.7182,5.2767-0.17645,1.4532,0.77718,2.8589,1.4369,4.4198,0.65911,1.5608,1.0256,3.2734,1.0256,5.0756,0,1.8009-0.36653,3.5148-0.27831,5.2553-1.4071,1.3799-2.3607,2.785-3.3429,4.2972-1.3779,0.8485-2.783,1.8021-4.3432,2.4632-1.5608,0.6597-3.2787,1.0237-5.0776,1.0237s-3.5167-0.364-4.9725-0.434c-1.662-1.2508-3.0691-2.2044-5.8904-1.6653,0.46384-2.8998-0.49368-4.3049-2.1161-6.0098,0.15051-0.7084,0.13688-1.4888,0.08498-2.3198-0.05582-0.833-0.14661-1.7107-0.2517-2.519,0.10509-1.8937,0.47033-3.6063-1.411-5.6226,3.2002-1.1054,4.1577-2.5112,4.9115-5.3253,1.6036,0.45541,3.0107-0.50017,4.5716-1.1593,1.5569-0.65975,3.2748-1.0256,4.6825-1.4921" fill-rule="nonzero" stroke="#FFF" fill="#231f20"/>
 <g fill-rule="evenodd" transform="matrix(0.59841087,0,0,0.59841087,36.526068,34.56388)">
  <path d="m8.8332,32.008c-3.3719-0.06507-4.7185,9.6546-4.7185,13.027,0,3.3725,1.3461,12.796,4.7185,12.763l23.551-0.2322,0.06528,24.227c0.0091,3.3725,9.1256,4.4385,12.498,4.4385,3.3725,0,11.984-1.0661,11.969-4.4385l-0.10879-24.589,23.347,0.3298c3.3721,0.04762,6.1703-9.1256,6.1703-12.498,0-3.3725-2.2689-11.943-5.6413-11.969l-25.111-0.198-0.507-24.131c-0.071-3.3717-6.745-4.8999-10.117-4.8999-3.3725,0-11.953,2.0565-11.969,5.429l-0.109,23.204-24.037-0.464z" stroke="#0d3d07" stroke-width="1.34464312" fill="#0d3d07"/>
  <path d="m11.177,36.204c-2.2382,0.004-3.7956,6.5926-3.7956,8.8308s1.0284,8.2999,3.2666,8.3018l25.674,0.02145,0.04333,27.428c0.0035,2.2382,5.799,3.0852,8.0373,3.0852,2.2382,0,8.5722-0.58239,8.5663-2.8206l-0.0722-27.493,25.987-0.22118c2.2382-0.01906,3.8111-6.0636,3.8111-8.3018s-1.8376-8.2688-4.0756-8.3018l-26.723-0.3945,0.27897-26.049c0.02395-2.2381-5.5346-3.0021-7.7728-3.0021s-7.9617,1.0297-8.0373,3.2666l-0.86574,25.607-24.323,0.04334z" fill="#2aaf18"/>
  <path d="m46.462,50.936,0.20359,28.778c0.0081,1.142,0.28774,1.9963,1.4297,1.9963s3.4347-0.85429,3.426-1.9963l-0.219-28.811,28.541,0.204c1.142,0.0082,2.1778-2.284,2.1778-3.426s-1.0358-1.4198-2.1778-1.4298l-28.512-0.248c-3.2517-0.02826-4.8935,1.6813-4.8705,4.933z" fill="#208c11"/>
  <path d="M43.277,38.48,43.255,10.972c-0.001-1.142-0.469-1.9963-1.611-1.9963s-3.4275,0.85427-3.426,1.9963l0.03684,27.541-26.907-0.20359c-1.142-0.0086-2.1777,2.284-2.1777,3.426s1.0358,1.4192,2.1777,1.4298l26.878,0.24778c3.2517,0.02998,5.0546-1.6812,5.052-4.933z" fill="#ebf8e9"/>
 </g>
</svg>
