<!-- Created with Inkscape (http://www.inkscape.org/) -->
<svg xmlns:rdf="http://www.w3.org/1999/02/22-rdf-syntax-ns#" xmlns="http://www.w3.org/2000/svg" height="90" width="90" version="1.1" xmlns:cc="http://creativecommons.org/ns#" xmlns:dc="http://purl.org/dc/elements/1.1/">
 <defs>
  <clipPath id="clipPath3373" clipPathUnits="userSpaceOnUse">
   <path d="m6880.6,2965.1,242.2-307.88-392.75,243.43,52.34-236.27-157.09,178.99-52.39-400.95-78.51,386.64-98.21-286.4-19.23,243.43-229.51-143.19,144.01,293.54-144.01,0,124.37,114.55-281.5,78.77,255.28,64.43-111.23,100.26,163.63,0-150.55,272.05,255.28-200.48-13.08,136.05,85.12-107.41,26.17,179.01,85.06-128.88,144.05,307.89-52.39-336.53,268.41,236.27-124.36-315.01,176.71,78.74-124.37-171.83,261.83-71.6-242.2-93.06,189.86-78.8-202.94-35.76"/>
  </clipPath>
 </defs>
 <metadata>
  <rdf:RDF>
   <cc:Work rdf:about="">
    <dc:format>image/svg+xml</dc:format>
    <dc:type rdf:resource="http://purl.org/dc/dcmitype/StillImage"/>
    <dc:title/>
   </cc:Work>
  </rdf:RDF>
 </metadata>
 <g fill="#962c23" transform="matrix(0.06487262,0,0,-0.06487262,-380.76225,245.94492)">
  <g fill="#962c23" clip-path="url(#clipPath3373)">
   <path d="m6880.6,2965.1,242.2-307.88-392.75,243.43,52.34-236.27-157.09,178.99-52.39-400.95-78.51,386.64-98.21-286.4-19.23,243.43-229.51-143.19,144.01,293.54-144.01,0,124.37,114.55-281.5,78.77,255.28,64.43-111.23,100.26,163.63,0-150.55,272.05,255.28-200.48-13.08,136.05,85.12-107.41,26.17,179.01,85.06-128.88,144.05,307.89-52.39-336.53,268.41,236.27-124.36-315.01,176.71,78.74-124.37-171.83,261.83-71.6-242.2-93.06,189.86-78.8-202.94-35.76" fill-rule="nonzero" fill="#962c23"/>
  </g>
 </g>
 <path d="m44.762,30.018c2.1901,0.46643,3.9079,0.83231,6.2524-1.2644,0.77653,3.4155,2.1817,4.3711,4.7182,5.2767-0.17645,1.4532,0.77718,2.8589,1.4369,4.4198,0.65911,1.5608,1.0256,3.2734,1.0256,5.0756,0,1.8009-0.36653,3.5148-0.27831,5.2553-1.4071,1.3799-2.3607,2.785-3.3429,4.2972-1.3779,0.8485-2.783,1.8021-4.3432,2.4632-1.5608,0.6597-3.2787,1.0237-5.0776,1.0237s-3.5167-0.364-4.9725-0.434c-1.662-1.2508-3.0691-2.2044-5.8904-1.6653,0.46384-2.8998-0.49368-4.3049-2.1161-6.0098,0.15051-0.7084,0.13688-1.4888,0.08498-2.3198-0.05582-0.833-0.14661-1.7107-0.2517-2.519,0.10509-1.8937,0.47033-3.6063-1.411-5.6226,3.2002-1.1054,4.1577-2.5112,4.9115-5.3253,1.6036,0.45541,3.0107-0.50017,4.5716-1.1593,1.5569-0.65975,3.2748-1.0256,4.6825-1.4921" fill-rule="nonzero" stroke="#FFF" fill="#231f20"/>
 <g fill-rule="evenodd" transform="matrix(0.65511454,0,0,0.65511454,32.532343,31.90521)">
  <path d="M25.359,8.5675c-2.639-2.6988-9.093,1.4785-11.799,4.1105-2.705,2.632-7.0623,8.972-4.4338,11.68l20.211,20.828-21.506,21.023c-2.699,2.6384,1.9152,8.6682,4.547,11.374,2.6318,2.7054,8.5491,7.5017,11.244,4.859l21.55-21.134,19.612,20.265c2.6248,2.7122,10.226-0.31381,12.931-2.9456,2.7054-2.6318,5.9118-10.119,3.3011-12.845l-19.439-20.297,20.861-20.259c2.707-2.63-1.333-9.235-3.965-11.94-2.632-2.706-9.11-6.9132-11.826-4.2927l-21.033,20.291-20.255-20.716z" fill="#2c0000"/>
  <path d="m24.045,12.679c-1.7496-1.7927-6.1403,0.87286-7.9358,2.6195-1.7955,1.7467-4.5826,6.0636-2.8374,7.8605l21.051,21.674-23.242,22.678c-1.7929,1.7494,1.0184,5.9986,2.7651,7.7942,1.7467,1.7955,5.9238,4.7301,7.715,2.979l23.271-22.751,21.69,22.366c1.7439,1.7982,6.5651-0.43611,8.3607-2.1828,1.7955-1.7467,4.1508-6.4936,2.4125-8.2973l-21.576-22.387,22.181-21.555c1.7964-1.7457-0.87286-6.1403-2.6195-7.9358-1.7467-1.7955-6.0605-4.5794-7.8605-2.8374l-22.297,21.576-21.08-21.6z" fill="#ff1500"/>
  <path d="M41.477,49.574,18.55,72.195c-0.9098,0.89766-1.3769,1.7887-0.48567,2.7048,0.8912,0.91612,3.3657,2.0886,4.275,1.1905l22.943-22.658,22.109,23.054c0.88464,0.92246,3.5317-0.03539,4.4478-0.9266,0.91612-0.8912,0.33068-1.9389-0.55252-2.8627l-22.05-23.064c-2.5149-2.6306-5.1675-2.6135-7.7581-0.05751z" fill="#cb0000"/>
  <path d="m49.128,42.115,22.05-21.484c0.91541-0.89194,1.2352-1.9343,0.34405-2.8504-0.8912-0.91612-3.3601-2.0829-4.275-1.1905l-22.065,21.522-20.835-21.744c-0.88424-0.92284-3.5317,0.0354-4.4478,0.9266-0.91612,0.8912-0.3302,1.9384,0.55252,2.8628l20.776,21.754c2.5135,2.6319,5.2932,2.7428,7.8998,0.20309z" fill="#FFF"/>
 </g>
</svg>
