<!-- Created with Inkscape (http://www.inkscape.org/) -->
<svg xmlns:rdf="http://www.w3.org/1999/02/22-rdf-syntax-ns#" xmlns="http://www.w3.org/2000/svg" height="90" width="90" version="1.1" xmlns:cc="http://creativecommons.org/ns#" xmlns:dc="http://purl.org/dc/elements/1.1/">
 <defs>
  <clipPath id="clipPath3373" clipPathUnits="userSpaceOnUse">
   <path d="m6880.6,2965.1,242.2-307.88-392.75,243.43,52.34-236.27-157.09,178.99-52.39-400.95-78.51,386.64-98.21-286.4-19.23,243.43-229.51-143.19,144.01,293.54-144.01,0,124.37,114.55-281.5,78.77,255.28,64.43-111.23,100.26,163.63,0-150.55,272.05,255.28-200.48-13.08,136.05,85.12-107.41,26.17,179.01,85.06-128.88,144.05,307.89-52.39-336.53,268.41,236.27-124.36-315.01,176.71,78.74-124.37-171.83,261.83-71.6-242.2-93.06,189.86-78.8-202.94-35.76"/>
  </clipPath>
 </defs>
 <metadata>
  <rdf:RDF>
   <cc:Work rdf:about="">
    <dc:format>image/svg+xml</dc:format>
    <dc:type rdf:resource="http://purl.org/dc/dcmitype/StillImage"/>
    <dc:title/>
   </cc:Work>
  </rdf:RDF>
 </metadata>
 <g fill="#962c23" transform="matrix(0.06487262,0,0,-0.06487262,-380.76225,245.94492)">
  <g fill="#962c23" clip-path="url(#clipPath3373)">
   <path d="m6880.6,2965.1,242.2-307.88-392.75,243.43,52.34-236.27-157.09,178.99-52.39-400.95-78.51,386.64-98.21-286.4-19.23,243.43-229.51-143.19,144.01,293.54-144.01,0,124.37,114.55-281.5,78.77,255.28,64.43-111.23,100.26,163.63,0-150.55,272.05,255.28-200.48-13.08,136.05,85.12-107.41,26.17,179.01,85.06-128.88,144.05,307.89-52.39-336.53,268.41,236.27-124.36-315.01,176.71,78.74-124.37-171.83,261.83-71.6-242.2-93.06,189.86-78.8-202.94-35.76" fill-rule="nonzero" fill="#962c23"/>
  </g>
 </g>
 <path d="m44.762,30.018c2.1901,0.46643,3.9079,0.83231,6.2524-1.2644,0.77653,3.4155,2.1817,4.3711,4.7182,5.2767-0.17645,1.4532,0.77718,2.8589,1.4369,4.4198,0.65911,1.5608,1.0256,3.2734,1.0256,5.0756,0,1.8009-0.36653,3.5148-0.27831,5.2553-1.4071,1.3799-2.3607,2.785-3.3429,4.2972-1.3779,0.8485-2.783,1.8021-4.3432,2.4632-1.5608,0.6597-3.2787,1.0237-5.0776,1.0237s-3.5167-0.364-4.9725-0.434c-1.662-1.2508-3.0691-2.2044-5.8904-1.6653,0.46384-2.8998-0.49368-4.3049-2.1161-6.0098,0.15051-0.7084,0.13688-1.4888,0.08498-2.3198-0.05582-0.833-0.14661-1.7107-0.2517-2.519,0.10509-1.8937,0.47033-3.6063-1.411-5.6226,3.2002-1.1054,4.1577-2.5112,4.9115-5.3253,1.6036,0.45541,3.0107-0.50017,4.5716-1.1593,1.5569-0.65975,3.2748-1.0256,4.6825-1.4921" fill-rule="nonzero" stroke="#FFF" fill="#231f20"/>
</svg>
