<!-- Created with Sodipodi ("http://www.sodipodi.com/") -->
<svg xmlns:rdf="http://www.w3.org/1999/02/22-rdf-syntax-ns#" xmlns="http://www.w3.org/2000/svg" height="90" width="90" version="1.0" y="0" x="0" xmlns:cc="http://creativecommons.org/ns#" xmlns:xlink="http://www.w3.org/1999/xlink" xmlns:dc="http://purl.org/dc/elements/1.1/">
 <metadata>
  <rdf:RDF>
   <cc:Work rdf:about="">
    <dc:format>image/svg+xml</dc:format>
    <dc:type rdf:resource="http://purl.org/dc/dcmitype/StillImage"/>
    <dc:title/>
   </cc:Work>
  </rdf:RDF>
 </metadata>
 <defs></defs>
 <g transform="matrix(1.4454764,0,0,1.4454764,2.9405653,1.2570509)" font-size="12px">
  <defs></defs>
  <path d="M48.811,55.619,39.403,47.062c-0.087-0.079-8.949,3.24-13.002,3.201-9.421-0.094-22.584-6.084-23.66-22.483-0.8504-13.069,7.7759-25.232,23.496-25.257,12.917-0.0204,24.849,9.4452,23.578,25.008-0.606,7.665-4.288,12.094-3.654,12.772l10.312,11.034c1.6757,1.793-0.23896,11.034-7.6616,4.2825z" stroke="#000" stroke-width="4.30358124" fill="none"/>
  <path d="m47.762,26.54c0,3.0218-0.6131,5.9012-1.7216,8.5206-0.55426,1.3097-1.7054,4.5704-2.6003,5.6548l8.3026,11.081-0.78685,1.1825-11.109-9.638c-1.0845,0.8949-4.1516,2.8202-5.4613,3.3745-2.6194,1.1085-5.4988,1.7216-8.5206,1.7216-12.087,0-21.897-9.8097-21.897-21.897s9.8097-21.897,21.897-21.897,21.897,9.8097,21.897,21.897z" stroke="#efe16b" stroke-width="3.25" fill="none"/>
  <path fill-rule="evenodd" fill="#ffc83d" d="m44.248,38.768,11.918,13.303c1.9284,2.7466-1.1645,6.1954-4.3719,4.523l-13.65-11.925c0.2607-2.7658,4.0962-5.4088,6.1041-5.9013z"/>
  <path fill-rule="evenodd" fill="#ff933d" d="m43.868,39.166,11.895,13.117c0.83409,2.1166-0.53462-1.443-2.2936,2.2391l-12.175-13.018c0.02179-0.85513,0.48208-1.9203,2.5735-2.3379z"/>
  <path fill-rule="evenodd" fill="#FFF" d="m40.046,42.275,12.653,12.48c0.51713,0.14775-0.60624,0.40213-0.41976,1.7013-0.441-0.621-13.421-12.499-13.421-12.499z"/>
  <ellipse fill="#bae6ff" transform="matrix(1.106369,0,0,1.106369,-7.012474,-6.130595)" fill-rule="evenodd" cx="29.5" fill-opacity="0.431" rx="18.451" cy="28.954" ry="18.451" stroke-width="1" d="m 47.950678,28.953592 c 0,10.190243 -8.260824,18.451067 -18.451067,18.451067 -10.190243,0 -18.451067,-8.260824 -18.451067,-18.451067 0,-10.190243 8.260824,-18.451067 18.451067,-18.451067 10.190243,0 18.451067,8.260824 18.451067,18.451067 z"/>
  <path d="m38.95,11.019c4.2533,3.0353,7.3496,7.6921,8.2782,13.249,0.92864,5.5571-0.48527,10.968-3.5206,15.221-3.0354,4.2534-7.6921,7.3496-13.249,8.2782-5.5571,0.92865-9.2129-0.19281-15.221-3.5206,29.217-8.7932,22.032-15.935,23.713-33.228" fill-opacity="0.34479998" fill-rule="evenodd" stroke-width="1" fill="#437caf"/>
  <path d="m44.197,38.559c-2.0449,0.76964-1.4163,0.65419-3.2948,1.8676-0.10454,0.17099-1.2346,0.05918-2.7076,4.3198l3.1324,2.8067c0.84957-1.1267,2.0948-3.1753,2.8334-3.6918,1.071-0.79427,1.6011-1.2002,3.1714-1.8281z" fill-rule="evenodd" stroke-width="1" fill="#F00"/>
  <path d="m41.764,44.432-0.98475,1.4074-1.8934-1.5743,0.88755-1.3868z" fill-rule="evenodd" stroke-width="1" fill="#FFF"/>
 </g>
 <g fill-rule="evenodd" stroke-width="1pt" transform="matrix(0.8059375,3.0500704e-3,-3.0500704e-3,0.8059375,0.3460835,27.657913)">
  <g font-size="12px" transform="matrix(-0.622937,0.855103,0.855103,0.622937,37.308563,-52.281861)">
   <path d="m51.966,36.049c1.9937,0.9968,13.506-1.2773,13.791-3.4133,0.41538-5.3228-10.126-11.92-11.693-12.49-1.5665-0.5696-2.9521-0.0821-3.3793,0.9147s-0.9968,14.276,1.2816,14.988z" transform="matrix(1.369638,0,0,1.207417,-21.85404,-4.997635)" fill="#0d3c07"/>
   <path d="m51.551,35.459c1.9937,0.9968,12.674-0.5697,12.959-2.7057,0.2848-2.1361-3.554-3.085-3.1268-4.509-4.365-5.095-10.687-6.883-11.114-5.886-0.4272,0.9968-0.9968,12.389,1.2816,13.101z" fill="#2aaf18"/>
   <path d="m61.946,28.339c1.5664,1.2816,3.4177,4.4145,2.4209,5.269-1.7088,1.5664-11.535,2.7057-12.674,2.1361-1.1392-0.5697,8.4019-2.2785,8.5443-4.6994s-2.7792-3.0492-1.9248-4.4733c0.8544-1.424,3.2065,1.198,3.6337,1.7676z" fill="#208c11"/>
  </g>
  <path d="m33.495,12.228s-4.9805-4.933-6.2208-5.2774c-1.2403-0.34433-0.54439,2.0266-0.54439,2.0266s6.3007,2.3533,6.7652,3.2508z" fill="#FFF"/>
 </g>
 <g stroke-width="1pt" transform="matrix(-0.8059375,-3.0500704e-3,-3.0500704e-3,0.8059375,80.634575,27.961764)" fill-rule="evenodd">
  <g transform="matrix(-0.622937,0.855103,0.855103,0.622937,37.308563,-52.281861)" font-size="12px">
   <path d="m51.966,36.049c1.9937,0.9968,13.506-1.2773,13.791-3.4133,0.41538-5.3228-10.126-11.92-11.693-12.49-1.5665-0.5696-2.9521-0.0821-3.3793,0.9147s-0.9968,14.276,1.2816,14.988z" transform="matrix(1.369638,0,0,1.207417,-21.85404,-4.997635)" fill="#0d3c07"/>
   <path d="m51.551,35.459c1.9937,0.9968,12.674-0.5697,12.959-2.7057,0.2848-2.1361-3.554-3.085-3.1268-4.509-4.365-5.095-10.687-6.883-11.114-5.886-0.4272,0.9968-0.9968,12.389,1.2816,13.101z" fill="#2aaf18"/>
   <path d="m61.946,28.339c1.5664,1.2816,3.4177,4.4145,2.4209,5.269-1.7088,1.5664-11.535,2.7057-12.674,2.1361-1.1392-0.5697,8.4019-2.2785,8.5443-4.6994s-2.7792-3.0492-1.9248-4.4733c0.8544-1.424,3.2065,1.198,3.6337,1.7676z" fill="#208c11"/>
  </g>
  <path d="m33.495,12.228s-4.9805-4.933-6.2208-5.2774c-1.2403-0.34433-0.54439,2.0266-0.54439,2.0266s6.3007,2.3533,6.7652,3.2508z" fill="#FFF"/>
 </g>
 <g fill-rule="evenodd" stroke-width="1pt" transform="matrix(3.0500704e-3,-0.8059375,-0.8059375,-3.0500704e-3,51.844249,79.54734)">
  <g font-size="12px" transform="matrix(-0.622937,0.855103,0.855103,0.622937,37.308563,-52.281861)">
   <path d="m51.966,36.049c1.9937,0.9968,13.506-1.2773,13.791-3.4133,0.41538-5.3228-10.126-11.92-11.693-12.49-1.5665-0.5696-2.9521-0.0821-3.3793,0.9147s-0.9968,14.276,1.2816,14.988z" transform="matrix(1.369638,0,0,1.207417,-21.85404,-4.997635)" fill="#0d3c07"/>
   <path d="m51.551,35.459c1.9937,0.9968,12.674-0.5697,12.959-2.7057,0.2848-2.1361-3.554-3.085-3.1268-4.509-4.365-5.095-10.687-6.883-11.114-5.886-0.4272,0.9968-0.9968,12.389,1.2816,13.101z" fill="#2aaf18"/>
   <path d="m61.946,28.339c1.5664,1.2816,3.4177,4.4145,2.4209,5.269-1.7088,1.5664-11.535,2.7057-12.674,2.1361-1.1392-0.5697,8.4019-2.2785,8.5443-4.6994s-2.7792-3.0492-1.9248-4.4733c0.8544-1.424,3.2065,1.198,3.6337,1.7676z" fill="#208c11"/>
  </g>
  <path d="m33.495,12.228s-4.9805-4.933-6.2208-5.2774c-1.2403-0.34433-0.54439,2.0266-0.54439,2.0266s6.3007,2.3533,6.7652,3.2508z" fill="#FFF"/>
 </g>
 <g stroke-width="1pt" transform="matrix(-3.0500704e-3,0.8059375,-0.8059375,-3.0500704e-3,52.148095,-0.7411491)" fill-rule="evenodd">
  <g transform="matrix(-0.622937,0.855103,0.855103,0.622937,37.308563,-52.281861)" font-size="12px">
   <path d="m51.966,36.049c1.9937,0.9968,13.506-1.2773,13.791-3.4133,0.41538-5.3228-10.126-11.92-11.693-12.49-1.5665-0.5696-2.9521-0.0821-3.3793,0.9147s-0.9968,14.276,1.2816,14.988z" transform="matrix(1.369638,0,0,1.207417,-21.85404,-4.997635)" fill="#0d3c07"/>
   <path d="m51.551,35.459c1.9937,0.9968,12.674-0.5697,12.959-2.7057,0.2848-2.1361-3.554-3.085-3.1268-4.509-4.365-5.095-10.687-6.883-11.114-5.886-0.4272,0.9968-0.9968,12.389,1.2816,13.101z" fill="#2aaf18"/>
   <path d="m61.946,28.339c1.5664,1.2816,3.4177,4.4145,2.4209,5.269-1.7088,1.5664-11.535,2.7057-12.674,2.1361-1.1392-0.5697,8.4019-2.2785,8.5443-4.6994s-2.7792-3.0492-1.9248-4.4733c0.8544-1.424,3.2065,1.198,3.6337,1.7676z" fill="#208c11"/>
  </g>
  <path d="m33.495,12.228s-4.9805-4.933-6.2208-5.2774c-1.2403-0.34433-0.54439,2.0266-0.54439,2.0266s6.3007,2.3533,6.7652,3.2508z" fill="#FFF"/>
 </g>
</svg>
