<!-- Created with Sodipodi ("http://www.sodipodi.com/") -->
<svg xmlns:rdf="http://www.w3.org/1999/02/22-rdf-syntax-ns#" xmlns="http://www.w3.org/2000/svg" height="90" width="90" version="1.0" y="0" x="0" xmlns:cc="http://creativecommons.org/ns#" xmlns:xlink="http://www.w3.org/1999/xlink" xmlns:dc="http://purl.org/dc/elements/1.1/">
 <metadata>
  <rdf:RDF>
   <cc:Work rdf:about="">
    <dc:format>image/svg+xml</dc:format>
    <dc:type rdf:resource="http://purl.org/dc/dcmitype/StillImage"/>
    <dc:title/>
   </cc:Work>
  </rdf:RDF>
 </metadata>
 <defs></defs>
 <g transform="matrix(1.4454764,0,0,1.4454764,2.9405653,1.2570509)" font-size="12px">
  <defs></defs>
  <path d="M48.811,55.619,39.403,47.062c-0.087-0.079-8.949,3.24-13.002,3.201-9.421-0.094-22.584-6.084-23.66-22.483-0.8504-13.069,7.7759-25.232,23.496-25.257,12.917-0.0204,24.849,9.4452,23.578,25.008-0.606,7.665-4.288,12.094-3.654,12.772l10.312,11.034c1.6757,1.793-0.23896,11.034-7.6616,4.2825z" stroke="#000" stroke-width="4.30358124" fill="none"/>
  <path d="m47.762,26.54c0,3.0218-0.6131,5.9012-1.7216,8.5206-0.55426,1.3097-1.7054,4.5704-2.6003,5.6548l8.3026,11.081-0.78685,1.1825-11.109-9.638c-1.0845,0.8949-4.1516,2.8202-5.4613,3.3745-2.6194,1.1085-5.4988,1.7216-8.5206,1.7216-12.087,0-21.897-9.8097-21.897-21.897s9.8097-21.897,21.897-21.897,21.897,9.8097,21.897,21.897z" stroke="#efe16b" stroke-width="3.25" fill="none"/>
  <path fill-rule="evenodd" fill="#ffc83d" d="m44.248,38.768,11.918,13.303c1.9284,2.7466-1.1645,6.1954-4.3719,4.523l-13.65-11.925c0.2607-2.7658,4.0962-5.4088,6.1041-5.9013z"/>
  <path fill-rule="evenodd" fill="#ff933d" d="m43.868,39.166,11.895,13.117c0.83409,2.1166-0.53462-1.443-2.2936,2.2391l-12.175-13.018c0.02179-0.85513,0.48208-1.9203,2.5735-2.3379z"/>
  <path fill-rule="evenodd" fill="#FFF" d="m40.046,42.275,12.653,12.48c0.51713,0.14775-0.60624,0.40213-0.41976,1.7013-0.441-0.621-13.421-12.499-13.421-12.499z"/>
  <ellipse fill="#bae6ff" transform="matrix(1.106369,0,0,1.106369,-7.012474,-6.130595)" fill-rule="evenodd" cx="29.5" fill-opacity="0.431" rx="18.451" cy="28.954" ry="18.451" stroke-width="1" d="m 47.950678,28.953592 c 0,10.190243 -8.260824,18.451067 -18.451067,18.451067 -10.190243,0 -18.451067,-8.260824 -18.451067,-18.451067 0,-10.190243 8.260824,-18.451067 18.451067,-18.451067 10.190243,0 18.451067,8.260824 18.451067,18.451067 z"/>
  <path d="m38.95,11.019c4.2533,3.0353,7.3496,7.6921,8.2782,13.249,0.92864,5.5571-0.48527,10.968-3.5206,15.221-3.0354,4.2534-7.6921,7.3496-13.249,8.2782-5.5571,0.92865-9.2129-0.19281-15.221-3.5206,29.217-8.7932,22.032-15.935,23.713-33.228" fill-opacity="0.34479998" fill-rule="evenodd" stroke-width="1" fill="#437caf"/>
  <path d="m44.197,38.559c-2.0449,0.76964-1.4163,0.65419-3.2948,1.8676-0.10454,0.17099-1.2346,0.05918-2.7076,4.3198l3.1324,2.8067c0.84957-1.1267,2.0948-3.1753,2.8334-3.6918,1.071-0.79427,1.6011-1.2002,3.1714-1.8281z" fill-rule="evenodd" stroke-width="1" fill="#F00"/>
  <path d="m41.764,44.432-0.98475,1.4074-1.8934-1.5743,0.88755-1.3868z" fill-rule="evenodd" stroke-width="1" fill="#FFF"/>
 </g>
 <path d="m18.383,32.291c-2.0862-0.040261-2.9194,5.9735-2.9194,8.0601s0.83287,7.917,2.9194,7.8964l14.571-0.14367,0.040388,14.989c0.005618,2.0866,5.6461,2.7462,7.7327,2.7462s7.4147-0.65959,7.4054-2.7462l-0.06731-15.214,14.445,0.20406c2.0864,0.029461,3.8176-5.6461,3.8176-7.7327s-1.4038-7.3892-3.4903-7.4054l-15.537-0.119-0.314-14.93c-0.043854-2.0861-4.1732-3.0317-6.2598-3.0317s-7.3956,1.2724-7.4054,3.359l-0.067,14.356z" fill-rule="evenodd" stroke="#0d3d07" stroke-width="0.83195025" fill="#0d3d07"/>
 <path d="m19.833,34.888c-1.3848,0.002463-2.3484,4.0789-2.3484,5.4638,0,1.3848,0.63627,5.1353,2.0211,5.1364l15.885,0.013269,0.026806,16.97c0.002192,1.3848,3.588,1.9088,4.9728,1.9088s5.3037-0.36034,5.3001-1.7452l-0.045-17.01,16.078-0.137c1.3848-0.011792,2.358-3.7516,2.358-5.1364s-1.1369-5.116-2.5216-5.1364l-16.533-0.245,0.173-16.117c0.014819-1.3848-3.4243-1.8574-4.8091-1.8574s-4.926,0.63707-4.9728,2.0211l-0.536,15.843z" fill-rule="evenodd" fill="#2aaf18"/>
 <path d="m41.664,44.003,0.12597,17.805c0.004994,0.70656,0.17803,1.2351,0.8846,1.2351s2.1251-0.52856,2.1197-1.2351l-0.135-17.826,17.658,0.126c0.70656,0.005043,1.3474-1.4132,1.3474-2.1197,0-0.70658-0.64085-0.87847-1.3474-0.88461l-17.64-0.152c-2.0119-0.017487-3.0277,1.0402-3.0135,3.0521z" fill-rule="evenodd" fill="#208c11"/>
 <path d="m39.694,36.296-0.01368-17.019c-0.000566-0.70657-0.29031-1.2351-0.99689-1.2351s-2.1207,0.52855-2.1197,1.2351l0.024,17.039-16.649-0.126c-0.70656-0.005346-1.3474,1.4132-1.3474,2.1197,0,0.70657,0.64086,0.8781,1.3474,0.88461l16.63,0.153c2.0119,0.018546,3.1274-1.0402,3.1257-3.0521z" fill-rule="evenodd" fill="#ebf8e9"/>
</svg>
