<?xml version="1.0" encoding="UTF-8" standalone="no"?>
<!-- Created with Sodipodi ("http://www.sodipodi.com/") -->

<svg
     xmlns:dc="http://purl.org/dc/elements/1.1/"
     xmlns:cc="http://creativecommons.org/ns#"
     xmlns:rdf="http://www.w3.org/1999/02/22-rdf-syntax-ns#"
     xmlns:svg="http://www.w3.org/2000/svg"
     xmlns="http://www.w3.org/2000/svg"
     xmlns:sodipodi="http://sodipodi.sourceforge.net/DTD/sodipodi-0.dtd"
     xmlns:inkscape="http://www.inkscape.org/namespaces/inkscape"
     height="90"
     width="90"
     version="1.0"
     id="svg2"
     inkscape:version="0.48.4 r9939"
     sodipodi:docname="sheet-save-img.svg">
    <sodipodi:namedview
         pagecolor="#ffffff"
         bordercolor="#666666"
         borderopacity="1"
         objecttolerance="10"
         gridtolerance="10"
         guidetolerance="10"
         inkscape:pageopacity="0"
         inkscape:pageshadow="2"
         inkscape:window-width="1920"
         inkscape:window-height="1177"
         id="namedview168"
         showgrid="false"
         inkscape:zoom="7.4167645"
         inkscape:cx="68.186682"
         inkscape:cy="35.059137"
         inkscape:window-x="0"
         inkscape:window-y="0"
         inkscape:window-maximized="1"
         inkscape:current-layer="g86" />
    <metadata
         id="metadata4">
        <rdf:RDF>
            <cc:Work
                 rdf:about="">
                <dc:format>image/svg+xml</dc:format>
                <dc:type
                     rdf:resource="http://purl.org/dc/dcmitype/StillImage" />
                <dc:title></dc:title>
            </cc:Work>
        </rdf:RDF>
    </metadata>
    <defs
         id="defs6">
        <linearGradient
             id="linearGradient615"
             y2="68.044"
             gradientUnits="userSpaceOnUse"
             x2="35.752"
             gradientTransform="matrix(0.960363,0,0,0.960363,3.8000346,-1.1561084)"
             y1="5.3679"
             x1="50.644">
            <stop
                 stop-color="#7fa8e3"
                 stop-opacity="0.741176"
                 offset="0"
                 id="stop9" />
            <stop
                 stop-color="#FFF"
                 stop-opacity="0"
                 offset="1"
                 id="stop11" />
        </linearGradient>
        <clipPath
             id="clipPath3373"
             clipPathUnits="userSpaceOnUse">
            <path
                 d="m6880.6,2965.1,242.2-307.88-392.75,243.43,52.34-236.27-157.09,178.99-52.39-400.95-78.51,386.64-98.21-286.4-19.23,243.43-229.51-143.19,144.01,293.54-144.01,0,124.37,114.55-281.5,78.77,255.28,64.43-111.23,100.26,163.63,0-150.55,272.05,255.28-200.48-13.08,136.05,85.12-107.41,26.17,179.01,85.06-128.88,144.05,307.89-52.39-336.53,268.41,236.27-124.36-315.01,176.71,78.74-124.37-171.83,261.83-71.6-242.2-93.06,189.86-78.8-202.94-35.76"
                 id="path14" />
        </clipPath>
        <marker
             id="Arrow1Sstartw"
             refY="0.0"
             refX="0.0"
             orient="auto">
            <path
                 d="M0,0l5-5-17.5,5,17.5,5-5-5z"
                 fill-rule="evenodd"
                 transform="scale(0.2) translate(6,0)"
                 stroke="#00F"
                 stroke-width="1.0pt"
                 fill="#00F"
                 id="path17" />
        </marker>
        <marker
             id="Arrow1Send0"
             refY="0.0"
             refX="0.0"
             orient="auto">
            <path
                 d="M0,0l5-5-17.5,5,17.5,5-5-5z"
                 fill-rule="evenodd"
                 transform="scale(0.2) rotate(180) translate(6,0)"
                 stroke="#00F"
                 stroke-width="1.0pt"
                 fill="#00F"
                 id="path20" />
        </marker>
    </defs>
    <path
         fill-rule="evenodd"
         fill="#000"
         d="M19.416,89.016c-3.477-0.051-9.305-2.176-9.8143-7.877-1.7947-5.761-8.0338-60.209-5.0232-64.002,1.5556-2.9858,4.9431-5.1776,10.97-5.9374,4.9315-0.75567,49.789-6.6613,53.096-5.7447,3.3078,0.91669,5.9134,1.6918,6.1513,6.289-0.24464,2.5002,8.0871,53.496,9.3652,56.503,0.60989,3.5223-0.39127,8.4446-5.4918,10.066-5.1004,1.6214-55.227,10.014-59.254,10.703z"
         fill-opacity="0.29411765"
         id="path22" />
    <path
         fill="#3d4e67"
         d="M23.185,84.454c-3.477-0.051-9.306-2.176-9.815-7.877-1.794-5.761-8.0335-60.209-5.0229-64.002,1.5556-2.9858,4.9431-5.1776,10.97-5.9374,4.9315-0.75567,49.789-6.6613,53.096-5.7447,3.3078,0.91669,5.9134,1.6918,6.1513,6.289-0.24464,2.5002,8.0871,53.496,9.3652,56.503,0.60989,3.5223-0.39127,8.4446-5.4918,10.066-5.1004,1.6214-55.227,10.014-59.254,10.703z"
         fill-rule="evenodd"
         id="path24" />
    <path
         fill="#FFF"
         d="m27.202,78.415c-3.3708,0.44533-8.0529,1.3763-8.6122-3.2356-2.3289-10.918-7.6685-54.186-3.8638-61.218,0.84979-1.6535,5.4636-3.8978,15.944-4.8348,11.91-1.1988,36.348-3.0218,38.92-2.9034,2.5715,0.11845,3.3582-0.17293,3.9176,4.4391-0.22716,4.9033,7.5307,43.26,7.989,50.052,0.3566,4.821,0.9703,6.8693-2.1763,8.0348"
         fill-rule="evenodd"
         id="path26" />
    <path
         fill="url(#linearGradient615)"
         d="m15.569,20.49s0.30316-6.543,9.0295-7.846c8.7263-1.3029,43.286-5.744,44.11-3.4767,0.8234,2.2673,1.8429,17.002,2.0971,18.194,0.25427,1.1919-29.001,11.385-37.035,21.113-8.0334,9.7278-13.66,17.599-13.66,17.599s-4.6002-34.308-4.542-45.583z"
         fill-rule="evenodd"
         id="path28" />
    <g
         transform="matrix(0.10478404,-0.01115417,0.01115417,0.10478404,8.534339,9.1913198)"
         id="g30">
        <circle
             r="143.36"
             d="m 351.77,210.17999 c 0,79.17554 -64.18445,143.36 -143.36,143.36 -79.17554,0 -143.359997,-64.18446 -143.359997,-143.36 0,-79.17554 64.184457,-143.359998 143.359997,-143.359998 79.17555,0 143.36,64.184458 143.36,143.359998 z"
             stroke="#000"
             cy="210.18"
             cx="208.41"
             stroke-width="10"
             fill="#FFF"
             id="circle32" />
        <circle
             r="86.017"
             d="m 294.427,210.17999 c 0,47.50588 -38.51112,86.017 -86.017,86.017 -47.50587,0 -86.01699,-38.51112 -86.01699,-86.017 0,-47.50587 38.51112,-86.017 86.01699,-86.017 47.50588,0 86.017,38.51113 86.017,86.017 z"
             stroke="#000"
             cy="210.18"
             cx="208.41"
             stroke-width="10"
             fill="#FFF"
             id="circle34" />
        <circle
             cy="210.18"
             cx="208.41"
             r="30.966"
             d="m 239.376,210.17999 c 0,17.10205 -13.86395,30.966 -30.966,30.966 -17.10205,0 -30.966,-13.86395 -30.966,-30.966 0,-17.10205 13.86395,-30.966 30.966,-30.966 17.10205,0 30.966,13.86395 30.966,30.966 z"
             id="circle36" />
        <line
             y2="396.02"
             stroke-width="10"
             x2="208.41"
             stroke="#000"
             y1="24.336"
             x1="208.41"
             fill="#FFF"
             id="line38" />
        <line
             y2="210.18"
             stroke-width="10"
             x2="22.566"
             stroke="#000"
             y1="210.18"
             x1="394.25"
             fill="#FFF"
             id="line40" />
        <circle
             d="m 236.72801,202.21001 c 0,11.72942 -9.50858,21.238 -21.238,21.238 -11.72943,0 -21.23801,-9.50858 -21.23801,-21.238 0,-11.72943 9.50858,-21.238 21.23801,-21.238 11.72942,0 21.238,9.50857 21.238,21.238 z"
             cy="202.21"
             cx="215.49"
             r="21.238"
             fill="#ed1c24"
             id="circle42" />
    </g>
    <g
         transform="translate(-88.81572,-9.0967643)"
         id="g44">
        <g
             transform="matrix(0.00763207,0,0,-0.00763207,78.678213,54.192754)"
             fill="#962c23"
             id="g46">
            <g
                 clip-path="url(#clipPath3373)"
                 fill="#962c23"
                 id="g48">
                <path
                     fill="#962c23"
                     d="m6880.6,2965.1,242.2-307.88-392.75,243.43,52.34-236.27-157.09,178.99-52.39-400.95-78.51,386.64-98.21-286.4-19.23,243.43-229.51-143.19,144.01,293.54-144.01,0,124.37,114.55-281.5,78.77,255.28,64.43-111.23,100.26,163.63,0-150.55,272.05,255.28-200.48-13.08,136.05,85.12-107.41,26.17,179.01,85.06-128.88,144.05,307.89-52.39-336.53,268.41,236.27-124.36-315.01,176.71,78.74-124.37-171.83,261.83-71.6-242.2-93.06,189.86-78.8-202.94-35.76"
                     fill-rule="nonzero"
                     id="path50" />
            </g>
        </g>
        <path
             d="m128.74,28.789c0.25765,0.05487,0.45975,0.09792,0.73557-0.14875,0.0914,0.40183,0.25667,0.51425,0.55508,0.62079-0.0207,0.17096,0.0914,0.33634,0.16906,0.51997,0.0775,0.18363,0.12066,0.38512,0.12066,0.59713,0,0.21187-0.0431,0.41351-0.0327,0.61827-0.16554,0.16234-0.27773,0.32764-0.39328,0.50555-0.16211,0.09983-0.32742,0.21202-0.51097,0.28979-0.18363,0.07762-0.38573,0.12043-0.59736,0.12043-0.21164,0-0.41374-0.04282-0.585-0.05106-0.19554-0.14715-0.36108-0.25934-0.69299-0.19592,0.0546-0.34115-0.0581-0.50646-0.24896-0.70704,0.0177-0.08334,0.0161-0.17516,0.01-0.27292-0.007-0.098-0.0173-0.20126-0.0296-0.29635,0.0124-0.22278,0.0553-0.42427-0.16599-0.66147,0.37649-0.13005,0.48914-0.29544,0.57782-0.62652,0.18866,0.05358,0.3542-0.05884,0.53783-0.13638,0.18317-0.07762,0.38527-0.12066,0.55089-0.17554"
             fill-rule="nonzero"
             stroke="#FFF"
             stroke-dasharray="none"
             stroke-miterlimit="4"
             stroke-width="0.2"
             fill="#231f20"
             id="path52" />
    </g>
    <g
         transform="translate(-101.23818,-5.6732508)"
         id="g54">
        <g
             transform="matrix(0.00763207,0,0,-0.00763207,78.678213,54.192754)"
             fill="#962c23"
             id="g56">
            <g
                 clip-path="url(#clipPath3373)"
                 fill="#962c23"
                 id="g58">
                <path
                     fill="#962c23"
                     d="m6880.6,2965.1,242.2-307.88-392.75,243.43,52.34-236.27-157.09,178.99-52.39-400.95-78.51,386.64-98.21-286.4-19.23,243.43-229.51-143.19,144.01,293.54-144.01,0,124.37,114.55-281.5,78.77,255.28,64.43-111.23,100.26,163.63,0-150.55,272.05,255.28-200.48-13.08,136.05,85.12-107.41,26.17,179.01,85.06-128.88,144.05,307.89-52.39-336.53,268.41,236.27-124.36-315.01,176.71,78.74-124.37-171.83,261.83-71.6-242.2-93.06,189.86-78.8-202.94-35.76"
                     fill-rule="nonzero"
                     id="path60" />
            </g>
        </g>
        <path
             d="m128.74,28.789c0.25765,0.05487,0.45975,0.09792,0.73557-0.14875,0.0914,0.40183,0.25667,0.51425,0.55508,0.62079-0.0207,0.17096,0.0914,0.33634,0.16906,0.51997,0.0775,0.18363,0.12066,0.38512,0.12066,0.59713,0,0.21187-0.0431,0.41351-0.0327,0.61827-0.16554,0.16234-0.27773,0.32764-0.39328,0.50555-0.16211,0.09983-0.32742,0.21202-0.51097,0.28979-0.18363,0.07762-0.38573,0.12043-0.59736,0.12043-0.21164,0-0.41374-0.04282-0.585-0.05106-0.19554-0.14715-0.36108-0.25934-0.69299-0.19592,0.0546-0.34115-0.0581-0.50646-0.24896-0.70704,0.0177-0.08334,0.0161-0.17516,0.01-0.27292-0.007-0.098-0.0173-0.20126-0.0296-0.29635,0.0124-0.22278,0.0553-0.42427-0.16599-0.66147,0.37649-0.13005,0.48914-0.29544,0.57782-0.62652,0.18866,0.05358,0.3542-0.05884,0.53783-0.13638,0.18317-0.07762,0.38527-0.12066,0.55089-0.17554"
             fill-rule="nonzero"
             stroke="#FFF"
             stroke-dasharray="none"
             stroke-miterlimit="4"
             stroke-width="0.2"
             fill="#231f20"
             id="path62" />
    </g>
    <g
         transform="translate(-89.109161,3.3256988)"
         id="g64">
        <g
             transform="matrix(0.00763207,0,0,-0.00763207,78.678213,54.192754)"
             fill="#962c23"
             id="g66">
            <g
                 clip-path="url(#clipPath3373)"
                 fill="#962c23"
                 id="g68">
                <path
                     fill="#962c23"
                     d="m6880.6,2965.1,242.2-307.88-392.75,243.43,52.34-236.27-157.09,178.99-52.39-400.95-78.51,386.64-98.21-286.4-19.23,243.43-229.51-143.19,144.01,293.54-144.01,0,124.37,114.55-281.5,78.77,255.28,64.43-111.23,100.26,163.63,0-150.55,272.05,255.28-200.48-13.08,136.05,85.12-107.41,26.17,179.01,85.06-128.88,144.05,307.89-52.39-336.53,268.41,236.27-124.36-315.01,176.71,78.74-124.37-171.83,261.83-71.6-242.2-93.06,189.86-78.8-202.94-35.76"
                     fill-rule="nonzero"
                     id="path70" />
            </g>
        </g>
        <path
             d="m128.74,28.789c0.25765,0.05487,0.45975,0.09792,0.73557-0.14875,0.0914,0.40183,0.25667,0.51425,0.55508,0.62079-0.0207,0.17096,0.0914,0.33634,0.16906,0.51997,0.0775,0.18363,0.12066,0.38512,0.12066,0.59713,0,0.21187-0.0431,0.41351-0.0327,0.61827-0.16554,0.16234-0.27773,0.32764-0.39328,0.50555-0.16211,0.09983-0.32742,0.21202-0.51097,0.28979-0.18363,0.07762-0.38573,0.12043-0.59736,0.12043-0.21164,0-0.41374-0.04282-0.585-0.05106-0.19554-0.14715-0.36108-0.25934-0.69299-0.19592,0.0546-0.34115-0.0581-0.50646-0.24896-0.70704,0.0177-0.08334,0.0161-0.17516,0.01-0.27292-0.007-0.098-0.0173-0.20126-0.0296-0.29635,0.0124-0.22278,0.0553-0.42427-0.16599-0.66147,0.37649-0.13005,0.48914-0.29544,0.57782-0.62652,0.18866,0.05358,0.3542-0.05884,0.53783-0.13638,0.18317-0.07762,0.38527-0.12066,0.55089-0.17554"
             fill-rule="nonzero"
             stroke="#FFF"
             stroke-dasharray="none"
             stroke-miterlimit="4"
             stroke-width="0.2"
             fill="#231f20"
             id="path72" />
    </g>
    <g
         transform="translate(-97.286751,-12.847848)"
         id="g74">
        <g
             transform="matrix(0.00763207,0,0,-0.00763207,78.678213,54.192754)"
             fill="#962c23"
             id="g76">
            <g
                 clip-path="url(#clipPath3373)"
                 fill="#962c23"
                 id="g78">
                <path
                     fill="#962c23"
                     d="m6880.6,2965.1,242.2-307.88-392.75,243.43,52.34-236.27-157.09,178.99-52.39-400.95-78.51,386.64-98.21-286.4-19.23,243.43-229.51-143.19,144.01,293.54-144.01,0,124.37,114.55-281.5,78.77,255.28,64.43-111.23,100.26,163.63,0-150.55,272.05,255.28-200.48-13.08,136.05,85.12-107.41,26.17,179.01,85.06-128.88,144.05,307.89-52.39-336.53,268.41,236.27-124.36-315.01,176.71,78.74-124.37-171.83,261.83-71.6-242.2-93.06,189.86-78.8-202.94-35.76"
                     fill-rule="nonzero"
                     id="path80" />
            </g>
        </g>
        <path
             d="m128.74,28.789c0.25765,0.05487,0.45975,0.09792,0.73557-0.14875,0.0914,0.40183,0.25667,0.51425,0.55508,0.62079-0.0207,0.17096,0.0914,0.33634,0.16906,0.51997,0.0775,0.18363,0.12066,0.38512,0.12066,0.59713,0,0.21187-0.0431,0.41351-0.0327,0.61827-0.16554,0.16234-0.27773,0.32764-0.39328,0.50555-0.16211,0.09983-0.32742,0.21202-0.51097,0.28979-0.18363,0.07762-0.38573,0.12043-0.59736,0.12043-0.21164,0-0.41374-0.04282-0.585-0.05106-0.19554-0.14715-0.36108-0.25934-0.69299-0.19592,0.0546-0.34115-0.0581-0.50646-0.24896-0.70704,0.0177-0.08334,0.0161-0.17516,0.01-0.27292-0.007-0.098-0.0173-0.20126-0.0296-0.29635,0.0124-0.22278,0.0553-0.42427-0.16599-0.66147,0.37649-0.13005,0.48914-0.29544,0.57782-0.62652,0.18866,0.05358,0.3542-0.05884,0.53783-0.13638,0.18317-0.07762,0.38527-0.12066,0.55089-0.17554"
             fill-rule="nonzero"
             stroke="#FFF"
             stroke-dasharray="none"
             stroke-miterlimit="4"
             stroke-width="0.2"
             fill="#231f20"
             id="path82" />
    </g>
    <path
         stroke-linejoin="miter"
         style="marker-start:url(#Arrow1Sstartw);marker-end:url(#Arrow1Send0);"
         d="m31.902,18.584,7.4448,14.354"
         stroke="#00F"
         stroke-linecap="butt"
         stroke-miterlimit="4"
         stroke-dasharray="none"
         stroke-width="1"
         fill="none"
         id="path84" />
    <g
         transform="matrix(0.99477341,-0.10210708,0.10210708,0.99477341,23.419585,23.644229)"
         id="g86">
        <g
             transform="matrix(0.10478404,-0.01115417,0.01115417,0.10478404,8.534339,9.1913198)"
             id="g88">
            <circle
                 stroke-width="10"
                 d="m 351.77,210.17999 c 0,79.17554 -64.18445,143.36 -143.36,143.36 -79.17554,0 -143.359997,-64.18446 -143.359997,-143.36 0,-79.17554 64.184457,-143.359998 143.359997,-143.359998 79.17555,0 143.36,64.184458 143.36,143.359998 z"
                 cy="210.18"
                 stroke="#000"
                 cx="208.41"
                 r="143.36"
                 fill="#FFF"
                 id="circle90" />
            <circle
                 stroke-width="10"
                 d="m 294.427,210.17999 c 0,47.50588 -38.51112,86.017 -86.017,86.017 -47.50587,0 -86.01699,-38.51112 -86.01699,-86.017 0,-47.50587 38.51112,-86.017 86.01699,-86.017 47.50588,0 86.017,38.51113 86.017,86.017 z"
                 cy="210.18"
                 stroke="#000"
                 cx="208.41"
                 r="86.017"
                 fill="#FFF"
                 id="circle92" />
            <circle
                 cy="210.18"
                 cx="208.41"
                 r="30.966"
                 d="m 239.376,210.17999 c 0,17.10205 -13.86395,30.966 -30.966,30.966 -17.10205,0 -30.966,-13.86395 -30.966,-30.966 0,-17.10205 13.86395,-30.966 30.966,-30.966 17.10205,0 30.966,13.86395 30.966,30.966 z"
                 id="circle94" />
            <line
                 stroke-width="10"
                 x1="208.41"
                 y1="24.336"
                 stroke="#000"
                 x2="208.41"
                 y2="396.02"
                 fill="#FFF"
                 id="line96" />
            <line
                 stroke-width="10"
                 x1="394.25"
                 y1="210.18"
                 stroke="#000"
                 x2="22.566"
                 y2="210.18"
                 fill="#FFF"
                 id="line98" />
            <circle
                 d="m 236.72801,202.21001 c 0,11.72942 -9.50858,21.238 -21.238,21.238 -11.72943,0 -21.23801,-9.50858 -21.23801,-21.238 0,-11.72943 9.50858,-21.238 21.23801,-21.238 11.72942,0 21.238,9.50857 21.238,21.238 z"
                 cy="202.21"
                 cx="215.49"
                 r="21.238"
                 fill="#ed1c24"
                 id="circle100" />
        </g>
        <g
             transform="translate(-88.81572,-9.0967643)"
             id="g102">
            <g
                 transform="matrix(0.00763207,0,0,-0.00763207,78.678213,54.192754)"
                 fill="#962c23"
                 id="g104">
                <g
                     clip-path="url(#clipPath3373)"
                     fill="#962c23"
                     id="g106">
                    <path
                         fill="#962c23"
                         d="m6880.6,2965.1,242.2-307.88-392.75,243.43,52.34-236.27-157.09,178.99-52.39-400.95-78.51,386.64-98.21-286.4-19.23,243.43-229.51-143.19,144.01,293.54-144.01,0,124.37,114.55-281.5,78.77,255.28,64.43-111.23,100.26,163.63,0-150.55,272.05,255.28-200.48-13.08,136.05,85.12-107.41,26.17,179.01,85.06-128.88,144.05,307.89-52.39-336.53,268.41,236.27-124.36-315.01,176.71,78.74-124.37-171.83,261.83-71.6-242.2-93.06,189.86-78.8-202.94-35.76"
                         fill-rule="nonzero"
                         id="path108" />
                </g>
            </g>
            <path
                 d="m128.74,28.789c0.25765,0.05487,0.45975,0.09792,0.73557-0.14875,0.0914,0.40183,0.25667,0.51425,0.55508,0.62079-0.0207,0.17096,0.0914,0.33634,0.16906,0.51997,0.0775,0.18363,0.12066,0.38512,0.12066,0.59713,0,0.21187-0.0431,0.41351-0.0327,0.61827-0.16554,0.16234-0.27773,0.32764-0.39328,0.50555-0.16211,0.09983-0.32742,0.21202-0.51097,0.28979-0.18363,0.07762-0.38573,0.12043-0.59736,0.12043-0.21164,0-0.41374-0.04282-0.585-0.05106-0.19554-0.14715-0.36108-0.25934-0.69299-0.19592,0.0546-0.34115-0.0581-0.50646-0.24896-0.70704,0.0177-0.08334,0.0161-0.17516,0.01-0.27292-0.007-0.098-0.0173-0.20126-0.0296-0.29635,0.0124-0.22278,0.0553-0.42427-0.16599-0.66147,0.37649-0.13005,0.48914-0.29544,0.57782-0.62652,0.18866,0.05358,0.3542-0.05884,0.53783-0.13638,0.18317-0.07762,0.38527-0.12066,0.55089-0.17554"
                 fill-rule="nonzero"
                 stroke="#FFF"
                 stroke-dasharray="none"
                 stroke-miterlimit="4"
                 stroke-width="0.2"
                 fill="#231f20"
                 id="path110" />
        </g>
        <g
             transform="translate(-103.72523,1.3905265)"
             id="g112">
            <g
                 transform="matrix(0.00763207,0,0,-0.00763207,78.678213,54.192754)"
                 id="g114"
                 style="fill:#962c23">
                <g
                     clip-path="url(#clipPath3373)"
                     id="g116"
                     style="fill:#962c23">
                    <path
                         d="m 6880.6,2965.1 242.2,-307.88 -392.75,243.43 52.34,-236.27 -157.09,178.99 -52.39,-400.95 -78.51,386.64 -98.21,-286.4 -19.23,243.43 -229.51,-143.19 144.01,293.54 -144.01,0 124.37,114.55 -281.5,78.77 255.28,64.43 -111.23,100.26 163.63,0 -150.55,272.05 255.28,-200.48 -13.08,136.05 85.12,-107.41 26.17,179.01 85.06,-128.88 144.05,307.89 -52.39,-336.53 268.41,236.27 -124.36,-315.01 176.71,78.74 -124.37,-171.83 261.83,-71.6 -242.2,-93.06 189.86,-78.8 -202.94,-35.76"
                         id="path118"
                         inkscape:connector-curvature="0"
                         style="fill:#962c23;fill-rule:nonzero" />
                </g>
            </g>
            <path
                 d="m 128.74,28.789 c 0.25765,0.05487 0.45975,0.09792 0.73557,-0.14875 0.0914,0.40183 0.25667,0.51425 0.55508,0.62079 -0.0207,0.17096 0.0914,0.33634 0.16906,0.51997 0.0775,0.18363 0.12066,0.38512 0.12066,0.59713 0,0.21187 -0.0431,0.41351 -0.0327,0.61827 -0.16554,0.16234 -0.27773,0.32764 -0.39328,0.50555 -0.16211,0.09983 -0.32742,0.21202 -0.51097,0.28979 -0.18363,0.07762 -0.38573,0.12043 -0.59736,0.12043 -0.21164,0 -0.41374,-0.04282 -0.585,-0.05106 -0.19554,-0.14715 -0.36108,-0.25934 -0.69299,-0.19592 0.0546,-0.34115 -0.0581,-0.50646 -0.24896,-0.70704 0.0177,-0.08334 0.0161,-0.17516 0.01,-0.27292 -0.007,-0.098 -0.0173,-0.20126 -0.0296,-0.29635 0.0124,-0.22278 0.0553,-0.42427 -0.16599,-0.66147 0.37649,-0.13005 0.48914,-0.29544 0.57782,-0.62652 0.18866,0.05358 0.3542,-0.05884 0.53783,-0.13638 0.18317,-0.07762 0.38527,-0.12066 0.55089,-0.17554"
                 stroke-miterlimit="4"
                 id="path120"
                 inkscape:connector-curvature="0"
                 style="fill:#231f20;fill-rule:nonzero;stroke:#ffffff;stroke-width:0.2;stroke-miterlimit:4;stroke-dasharray:none" />
        </g>
        <g
             transform="translate(-90.429552,0.34386934)"
             id="g122">
            <g
                 transform="matrix(0.00763207,0,0,-0.00763207,78.678213,54.192754)"
                 id="g124"
                 style="fill:#962c23">
                <g
                     clip-path="url(#clipPath3373)"
                     id="g126"
                     style="fill:#962c23">
                    <path
                         d="m 6880.6,2965.1 242.2,-307.88 -392.75,243.43 52.34,-236.27 -157.09,178.99 -52.39,-400.95 -78.51,386.64 -98.21,-286.4 -19.23,243.43 -229.51,-143.19 144.01,293.54 -144.01,0 124.37,114.55 -281.5,78.77 255.28,64.43 -111.23,100.26 163.63,0 -150.55,272.05 255.28,-200.48 -13.08,136.05 85.12,-107.41 26.17,179.01 85.06,-128.88 144.05,307.89 -52.39,-336.53 268.41,236.27 -124.36,-315.01 176.71,78.74 -124.37,-171.83 261.83,-71.6 -242.2,-93.06 189.86,-78.8 -202.94,-35.76"
                         id="path128"
                         inkscape:connector-curvature="0"
                         style="fill:#962c23;fill-rule:nonzero" />
                </g>
            </g>
            <path
                 d="m 128.74,28.789 c 0.25765,0.05487 0.45975,0.09792 0.73557,-0.14875 0.0914,0.40183 0.25667,0.51425 0.55508,0.62079 -0.0207,0.17096 0.0914,0.33634 0.16906,0.51997 0.0775,0.18363 0.12066,0.38512 0.12066,0.59713 0,0.21187 -0.0431,0.41351 -0.0327,0.61827 -0.16554,0.16234 -0.27773,0.32764 -0.39328,0.50555 -0.16211,0.09983 -0.32742,0.21202 -0.51097,0.28979 -0.18363,0.07762 -0.38573,0.12043 -0.59736,0.12043 -0.21164,0 -0.41374,-0.04282 -0.585,-0.05106 -0.19554,-0.14715 -0.36108,-0.25934 -0.69299,-0.19592 0.0546,-0.34115 -0.0581,-0.50646 -0.24896,-0.70704 0.0177,-0.08334 0.0161,-0.17516 0.01,-0.27292 -0.007,-0.098 -0.0173,-0.20126 -0.0296,-0.29635 0.0124,-0.22278 0.0553,-0.42427 -0.16599,-0.66147 0.37649,-0.13005 0.48914,-0.29544 0.57782,-0.62652 0.18866,0.05358 0.3542,-0.05884 0.53783,-0.13638 0.18317,-0.07762 0.38527,-0.12066 0.55089,-0.17554"
                 stroke-miterlimit="4"
                 id="path130"
                 inkscape:connector-curvature="0"
                 style="fill:#231f20;fill-rule:nonzero;stroke:#ffffff;stroke-width:0.2;stroke-miterlimit:4;stroke-dasharray:none" />
        </g>
        <g
             transform="translate(-97.803224,-5.1751898)"
             id="g132">
            <g
                 transform="matrix(0.00763207,0,0,-0.00763207,78.678213,54.192754)"
                 id="g134"
                 style="fill:#962c23">
                <g
                     clip-path="url(#clipPath3373)"
                     id="g136"
                     style="fill:#962c23">
                    <path
                         d="m 6880.6,2965.1 242.2,-307.88 -392.75,243.43 52.34,-236.27 -157.09,178.99 -52.39,-400.95 -78.51,386.64 -98.21,-286.4 -19.23,243.43 -229.51,-143.19 144.01,293.54 -144.01,0 124.37,114.55 -281.5,78.77 255.28,64.43 -111.23,100.26 163.63,0 -150.55,272.05 255.28,-200.48 -13.08,136.05 85.12,-107.41 26.17,179.01 85.06,-128.88 144.05,307.89 -52.39,-336.53 268.41,236.27 -124.36,-315.01 176.71,78.74 -124.37,-171.83 261.83,-71.6 -242.2,-93.06 189.86,-78.8 -202.94,-35.76"
                         id="path138"
                         inkscape:connector-curvature="0"
                         style="fill:#962c23;fill-rule:nonzero" />
                </g>
            </g>
            <path
                 d="m 128.74,28.789 c 0.25765,0.05487 0.45975,0.09792 0.73557,-0.14875 0.0914,0.40183 0.25667,0.51425 0.55508,0.62079 -0.0207,0.17096 0.0914,0.33634 0.16906,0.51997 0.0775,0.18363 0.12066,0.38512 0.12066,0.59713 0,0.21187 -0.0431,0.41351 -0.0327,0.61827 -0.16554,0.16234 -0.27773,0.32764 -0.39328,0.50555 -0.16211,0.09983 -0.32742,0.21202 -0.51097,0.28979 -0.18363,0.07762 -0.38573,0.12043 -0.59736,0.12043 -0.21164,0 -0.41374,-0.04282 -0.585,-0.05106 -0.19554,-0.14715 -0.36108,-0.25934 -0.69299,-0.19592 0.0546,-0.34115 -0.0581,-0.50646 -0.24896,-0.70704 0.0177,-0.08334 0.0161,-0.17516 0.01,-0.27292 -0.007,-0.098 -0.0173,-0.20126 -0.0296,-0.29635 0.0124,-0.22278 0.0553,-0.42427 -0.16599,-0.66147 0.37649,-0.13005 0.48914,-0.29544 0.57782,-0.62652 0.18866,0.05358 0.3542,-0.05884 0.53783,-0.13638 0.18317,-0.07762 0.38527,-0.12066 0.55089,-0.17554"
                 stroke-miterlimit="4"
                 id="path140"
                 inkscape:connector-curvature="0"
                 style="fill:#231f20;fill-rule:nonzero;stroke:#ffffff;stroke-width:0.2;stroke-miterlimit:4;stroke-dasharray:none" />
        </g>
        <path
             style="fill:none;stroke:#0000ff;stroke-width:1;stroke-linecap:butt;stroke-linejoin:miter;stroke-miterlimit:4;stroke-dasharray:none;marker-start:url(#Arrow1Sstartw);marker-end:url(#Arrow1Send0)"
             d="M 26.020112,30.991918 39.309875,21.413472"
             stroke-miterlimit="4"
             id="path142"
             inkscape:connector-curvature="0"
             sodipodi:nodetypes="cc" />
    </g>
    <path
         stroke-linejoin="miter"
         d="m18.321,55.557,15.756-1.8321"
         stroke-dashoffset="0"
         stroke="#00F"
         stroke-linecap="butt"
         stroke-miterlimit="4"
         stroke-dasharray="2,1"
         stroke-width="1"
         fill="none"
         id="path158" />
    <path
         stroke-linejoin="miter"
         d="m18.87,58.855,15.756-1.8321"
         stroke-dashoffset="0"
         stroke="#00F"
         stroke-linecap="butt"
         stroke-miterlimit="4"
         stroke-dasharray="2, 1"
         stroke-width="1"
         fill="none"
         id="path160" />
    <path
         stroke-linejoin="miter"
         d="m19.237,62.153,15.756-1.8321"
         stroke-dashoffset="0"
         stroke="#00F"
         stroke-linecap="butt"
         stroke-miterlimit="4"
         stroke-dasharray="2, 1"
         stroke-width="1"
         fill="none"
         id="path162" />
    <path
         stroke-linejoin="miter"
         d="m19.786,65.267,15.756-1.8321"
         stroke-dashoffset="0"
         stroke="#00F"
         stroke-linecap="butt"
         stroke-miterlimit="4"
         stroke-dasharray="2, 1"
         stroke-width="1"
         fill="none"
         id="path164" />
    <path
         stroke-linejoin="miter"
         d="m20.153,68.382,15.756-1.8321"
         stroke-dashoffset="0"
         stroke="#00F"
         stroke-linecap="butt"
         stroke-miterlimit="4"
         stroke-dasharray="2, 1"
         stroke-width="1"
         fill="none"
         id="path166" />
</svg>
